<svg xmlns="http://www.w3.org/2000/svg" viewBox="0 0 226.36 321.34"><defs><style>.cls-1{fill:#2a0f0f;}</style></defs><title>Bantandu</title><g id="Layer_2" data-name="Layer 2"><g id="Layer_1-2" data-name="Layer 1"><path class="cls-1" d="M52.73,246.05c-1.12,1.49-2,3.25-4.61,3.83.24-1.21.42-2.12.65-3.26l-2.46-1.5c.67-2,1.35-4.06,2.17-6.54-.78-.18-1.82-.77-2.31-.46a6.42,6.42,0,0,0-2.31,2.59c-.58,1.26.27,3.07-1.85,4.17l-1.41-4.33-1.76,3c-.32-.21-.69-.33-.69-.47,0-1.19,0-2.37,0-3.29,4.25-2.78,8.25-5.13,10.23-9.76l3.15.91,1.39-3.57,1.91.13a14,14,0,0,1-.13,1.62,15.86,15.86,0,0,1-.61,1.78h5.31l.11-.7-3.17-.65.69-7.49,3.55-.48c2.74-2.78,3.19-8.66,9.3-7.15-.61-2.83-.61-2.83,2.09-4.6,2.38,1.34-1,3.63.84,5.06s0,3.38.77,5l5.56-4c.64-1.3,1.43-2.86,2.27-4.55-1-3.32,0-5,4.28-6.92l-2.75-2.88,3.7-2.91c1.58,1,2.75,3,5,2,2.52-2.9,6.36-5.12,6.55-10-1.78.73-3.22,1.34-4.69,1.9-.19.07-.49-.17-1-.37.15-2.55.54-5.21-1-7.72-.48-.78.17-2.32.46-3.47a28.86,28.86,0,0,0,1-4,15.71,15.71,0,0,0-4.15,6,53,53,0,0,1-7.45,13.08A12.19,12.19,0,0,1,76,200l-2.11-3.4-1.84,2.3c-2.55.12-2.52-2.41-4.14-3.51-2.74-.09-5.59-.32-8.19-2.31-1.35-1-3.57-.93-5.64-1.4,0,3,3.53,3.23,4.89,6-3.2-1-5.81-1.67-7.62-4.21l-8.11,4c-.37-2.36,1-3.23,2-4.17,1.37-1.27,1.45-2.5.21-4.17-2.56,1.07-5.77.79-7.56,3.7l.08-.06-3-.39c.47-1.35.84-2.45,1.32-3.86-2.3-.25-3.44,1.1-4.67,2.25-.59.55-1.06,1.31-1.74,1.64-1,.5-2.35.48-2.79-.73a3.21,3.21,0,0,1,.76-2.43c.46-.6,1.5-.72,2-1.28,1.12-1.16,2.08-2.46,3.09-3.72.66-.81,1.29-1.63,2-2.49,2.91.78,5.63,2.35,8.66-.62-5.09-.38-9.22-4.24-14.73-.41,2-5.19,7.16-5,9.88-8.6L35,169.85c1.25-.64,2.41-1.16,3.49-1.79,3.52-2.05,3.9-3,3-7.53-2.58.09-4.56,3.46-8,1l-1.57-2.72,5.3-4.15-7.66-.86L35.18,150l-3-1c2.68-3.27,5.36,1,8.46-.18-.24-1.07-.46-2.13-.72-3.29l-3.54.21c-1.44-4-5.49-.73-7.9-2.92l1.75-2.69c-.76-.15-1.31-.44-1.73-.32-2.17.63-4.26.83-6.22-.62,2.92-3.18,6.44-5.06,10.44-5.06l2.06-4.64L32.7,128l2.75-2.37,1.49-.24-.18-.46-1.26.77c-1.34.19-2.68.41-4,.55-1.57.17-3.21.67-4.75-.68,1.4-3.6,2.79-7.15,4.28-11-1.89-1.87-6.09-1.09-6.44-5.61l1.57-2.51a8.23,8.23,0,0,0-1.31-2c-2.84-2.32-3.55-5.83-4.4-9-.69-2.51-.92-5.69,1.91-7.93L28,88.79l.35-.7-2.71-2.41c.18-.22.37-.6.5-.58,3.25.5,6.43-.53,9.6-.51A50.29,50.29,0,0,1,47,86.05c4.06,1,7.95,2.67,11.94,4a4.73,4.73,0,0,0,2,.26c3.1-.38,5.35,1.36,8,2.9-.68,1.46-1.29,2.77-1.88,4-3.09,1.33-6.18,1.22-9.32,1.31-4.31.13-8.6.84-12.9,1.33-.16,0-.29.41-.5.75,5.09.74,10-1.47,16-1-2.1,2-3.82,2-5.49,2.3a55.91,55.91,0,0,0-7.46,1.92c-1.06.36-1.89,1.41-2.82,2.16l-.22.06c-.3.21-.07,0,.17-.13,3.59-.67,7.17-1.41,10.77-2,2.26-.38,4.55-.55,7.25-.87a35.63,35.63,0,0,1,1,3.62c.62,4-.82,5.53-4.67,4.67-3-.66-5.62-.48-8,1.25v6.92c2.42-.7,4.57,0,6.79,1.18,1.45.78,3.43.71,5.18.79a20.75,20.75,0,0,1,10.11,2.7c1.69,1,3.2,2,3.69,4.08.19.81,1.1,1.49,1.74,2.16a28.78,28.78,0,0,1,3.14,3.21c2.86,4.14,7.18,6.08,11.57,7.88.68.28,1.63-.1,2.57-.89-.52-.32-1-.67-1.55-.95-.82-.45-1.92-.64-2.44-1.31-2.5-3.19-4.85-6.5-7.25-9.77-.81-1.1-1.54-2.27-2.43-3.29-2.48-2.85-5-5.64-7.78-8.73,2-1.36,3.92-1.94,5.93-1.29,2.25.73,3.64-.34,5-1.78,1.15-1.2,2.35-2.35,3.93-3.93-.58-2.89-1.74-6.44-.58-10.3l2.44.15c.53-1.86.44-4.21,3.25-4.72,1.81.87,3.74,2.53,5.66,2.52,2.13,0,4,.86,5.91.89,2.09,0,4.19-.92,6.6-1.52-1.55-3.09-3.94-3.77-6.76-3.84-2.65-.07-5.3-.29-8.08-.45-.07-1.64,1.22-2.15,2.32-2.26,4.84-.48,9.5,0,13.17,3.7a21.89,21.89,0,0,1,2.26,2.81c1.31,1.88,2.56,3.8,4.18,6.22-.43,3-.94,6.66-1.46,10.39,4.81,5.19,3,3.68,13.33,7.52a10.55,10.55,0,0,1-1.26,2.2c-2.79,3-5.73,5.79-8.46,8.8s-5.46,6.38-9.07,8.65c-.17.11-.18.48-.33,1,1.37,1.17,3,.7,4.53.52,4-.46,6.79-3.12,9.71-5.55a53.1,53.1,0,0,1,4.48-3.43c2.59-1.74,5.3-3.25,7.25-5.84,2.32-3.09,5.72-3.59,9.22-2.84,2.27.5,4.36.83,6-1.11,1.47-1.73,1.68-3.81.77-6.29l6.49,2c-2.21-4.45-7.22-4.28-10.46-7.34,3-.73,4.8,1,6.85,1.79s4.07,1.48,6.92,2.51a8.69,8.69,0,0,0-3.9-3.26c-4.26-2.07-8.42-4.37-12.54-6.73a26.89,26.89,0,0,1-3.68-3.2c1-.45,1.56-.92,2.11-.91,3.64,0,7.32,0,10.93.38,5.53.62,11,1.48,16.53,2.51,2.64.5,5.09,2,7.93,1.51l-.06-.07,3.8,2.65c.68,2.53,3.53,5.44-.51,8.09l-.41-.69.47.63c.14,2.11-.11,3.94-2,5.44-1.33,1.06-2.19,2.71-3.56,4.48l-5.83-4.82c.55,3.76,4.23,5.31,5,9,.64,3.17,2,6.28,2.42,9.39L185,141.4c-1.26,3.28-3.33.92-5.25,1.14,1.37,2.37,2.31,4.57,4.92,5.4,2.26.71,3.15,2.7,3.93,5l-2.86-1.22c-.18,1.16-.35,2.3-.57,3.8l2.49,1.95-1.08,2.92c.26.2.56.59.9.65a35.47,35.47,0,0,0,5.21.64,8.31,8.31,0,0,1,7.08,3.86c-2.15,3.58-4.34,4.49-8.44,3.3l3.5-3c-.27-.4-.5-1.11-.84-1.17a24.16,24.16,0,0,0-4.78-.49,18.55,18.55,0,0,0-3.11.86c-2.21.46-4.58,1.74-6.15-2.05l-.53,1.07.44,6.9,2.44,2h-5.67c.26,2.25.91,4,2.3,5,3.07,2.34,4.38,5.67,6.09,9.18l-3.36.3c.34,1.34.66,2.55,1.1,4.28l-10.1-1.12c.3,4.42,4.57,5.16,6.87,8.05-2.55.74-5-1.88-7.07,1.16a14.93,14.93,0,0,0-1.4-3.39,15,15,0,0,0-2.82-2.16c.2-.94.45-2.08.73-3.4l-3.79-2c-1.55,1.17-1.37,2.75-.83,4.08,1.1,2.75,2.48,5.39,3.75,8.07l.07-.06c-1.57,0-2.46-1-3.21-2.22a3.76,3.76,0,0,0-3.8-2.13c-.21,1.25-.41,2.43-.62,3.64l2.42,1.69c-2.91,1.38-5,.42-7-1.24L154.37,202l-3.86-4.27c.31-.45.72-1.08,1.16-1.68s.83-1,1.45-1.78c-2.05-.39-4.22,0-4.74-3l.78-2.32-5.44-2.31-1.52,1A99.58,99.58,0,0,1,134.09,166c-1.92.64-1.49,1.64-1,2.41,3,4.6,2.53,9.91,3.06,15a7.62,7.62,0,0,1-.74,3.92,7.83,7.83,0,0,0,.12,7,22.34,22.34,0,0,1,1.38,5.8c.63,2,3.76,2,4,5.11l-4,1.11c-.19-1.33-.34-2.32-.49-3.35-5.31,2.21-5.49,2.49-3.52,5.56,0,1.1-2.45,1.83-.4,3.49,1.74,0,4.3-2.48,5.53,1.21l-3.22,2.84c2.72,2.17,4.94.9,7.94-.56l-2,3.77c2.45.85,3.59-.7,5-2.34a5.71,5.71,0,0,1,1-6.55c1.43.69,1.38,2,1.81,3.09a17.69,17.69,0,0,0,2.29,3.21c.19,1.75.49,4.14-1.51,6.2a3.7,3.7,0,0,0-.43,2.64,2.33,2.33,0,0,1-1.78,2.83,6.79,6.79,0,0,0-6.08,5.64c-.05.21-.39.36-.73.66-1.35.35-3.17-2-4.57.46l3.35,3.51c1.26-.34,2.65-.77,4.06-1.05a7.53,7.53,0,0,1,3.14-.25c1.25.31,2.39,1.75,3.74.75a17.91,17.91,0,0,0,2.71-3.13l6.36-.31c1.15-2.54,2.1-4.67,3.37-7.48-2.7,1-3.16,2.8-4,4.23-1.38,2.22-1.88,2.35-4.73,1.08.28-1.46,1.67-2.69.81-4.62-.6-1.34,2.05-3.43,4.18-3.61a18,18,0,0,1,2.71.2c.78-1.55,1.55-3.07,2.53-5h-4.84l4.38-3.67c3.06.74,3.46,3.79,5.58,5.58-.58,1.43-1.13,2.8-1.67,4.16l-2,.65.44.71,1.53-1.43c.55.53,1.42,1,1.56,1.6a3.22,3.22,0,0,1-.7,2.17,7.29,7.29,0,0,1-2.22,2.3c-4,2.21-5.08,6.8-8.78,9.89l3.11,1.13,1.56,4.43,4-2.78,1.44,2.25c1.89-.42,2.67-2.08,3.92-3.47-1-1.9-2-3.74-3.31-6.18-1.35,2.08-2.48,3.8-3.61,5.55-2.34-2.2-2.35-2.3-.54-6.44,1.82-1.42,4.88-1.36,5.42-4.41a6.42,6.42,0,0,0,4.4-4.82c2.2,3.53,1,8-2.9,10.59l1.76,3.15h2.44c-1.56,2.66-3,5.06-4.48,7.61l2.78,2.6c2.77-1.31,2.48-5.38,6.24-5.5a5.57,5.57,0,0,1-.52,1.69c-2.15,3-2.25,4.37-.34,7.31a9.89,9.89,0,0,1,1.36,2c.16.47-.26,1.13-.51,2.05a32.47,32.47,0,0,0-3.14-2.39c-2.67-1.53-4.63-.7-5.32,2.38a4.26,4.26,0,0,1-2.82,3.16c-1.12.48-2.28.86-3.66,1.37.18.85.33,1.6.54,2.61-1-.14-1.86-.21-2.73-.42a25.1,25.1,0,0,1-2.63-1v6.57c1.81-4,6.87-3.12,8.88-6.61l3.66,2.29c.43-.27.94-.4,1.06-.69a16.17,16.17,0,0,0,.57-2.41l-2.57-.5,4-4.8c1.81.27,2,1.34,1.47,2.9-1,3.29-1,3.3-.25,5.63l4.29-3.06c.22-1.54.47-3.27.7-4.86l5.37-2.51c.68,3.19-2.31,5.33-2.65,8.53l5.56.7-4.63,4.27c-.51,3,2.4,6.85-2.6,8.52l3.66,2.91c2.29-.87,4.67-1.32,7.23,0,1.21.64,2.95.25,4.44.37,1.89.15,1.89.17,3.6,2.71l-4.38.39,1.06,3.7-1.79,2.79c.6.24,1,.58,1.26.47.83-.42,1.9-.81,2.3-1.53,1.19-2.16,3-2.08,5.13-1.76,1.51,1.33,2.53,4.06,5.55,2.7l1.3-2.24c1.26,1.16,2.33,2.13,3.59,3.27-.55.72-1.08,1.3-1.48,1.95-1.27,2.12-.43,3.68,2.1,3.83a24.62,24.62,0,0,0,2.95-.19c.07,3.22-3.08,2.13-4.38,3.61.19.79.41,1.67.58,2.34l-4.31,3.7c.11.24.23.48.35.72l3-.65c1,2.77,2.11,5.6,3.27,8.65-4.2,2.88-8.62,5-13.64,1.06-3.72.23-7.39.57-9.44,4.53L184.89,319l-1.95,1.81c-2.65,0-4.67,0-6.69,0a4.8,4.8,0,0,1-4.16-2.14,27.53,27.53,0,0,0-2.82-3l-2.65,3.65-1.43-6.09c-.92,1.28-1.54,2.14-2.36,3.3l-2.75-3.73c-.39.47-.7.78-.93,1.13a11.3,11.3,0,0,0-.55,1.22l-2.33-.41c-.26.48-.5.94-.91,1.72v-9c-2.85-1-3-.89-3.27,3.25L148.47,313c-.33-4.21-.33-4.21-3.32-6.08-2.34.78-.93,3.55-2.56,4.84-2.57,1.78-4.32-2.79-7.06-.93-.54-2.43-2.13-3.73-4.24-4.76-1.19,1.36-.63,2.63-.38,3.94.46,2.42.4,2.43-3.11,4.07l-2.12-3.57c-1.34,2.59,1.1,5.29-1.83,7-.51-2-.68-4.07-1.56-5.75s-2-3.48-2.07-5.78l3.35-1.75c.51-2.6.38-5-2-6.86a48.49,48.49,0,0,1-3.73-3.59c-1.44-1.4-2.39-2.95-1.7-5.1.41-1.25.67-2.55,1-3.78,3.45-.47,2.05,3.29,4,4,1.65-2.19,1.67-5.08,0-6.76a17.81,17.81,0,0,0-2-1.46,3.53,3.53,0,0,1-1.49-4c1-3.33-.77-6.38-.17-10.44-2.62,1.92-4.09,3.68-6.53,4.33a14.37,14.37,0,0,0-6.55,4c-1.77,1.93-4.11,2.38-6.14,3.5,1,2.3,1,2.3,3.91,1.2.1,2.91.2,5.84,3.83,6.7-.93,2.09-2,1.83-3.1,1-1.39-1-2.74-2.12-4-3.13-3,2.43-3,2.43-3,6.08l-7,4.38c2.88,1.45,5-.42,7.44-.24.48-1.25.91-2.35,1.3-3.35,3.33-.69,1.3,2.42,2.92,3.38a24.65,24.65,0,0,1,3.43-2.64,23.49,23.49,0,0,1,4-1.4c.82-3.78-1.64-5.9-3.13-8.31,2.4-7.59,3.94-8.55,9.78-6,.18,4-2,6.82-5.11,9.59l4.47,1.71-1.18,3.71c1.18,2.17,2.28,4.54.71,7.44l4.51-1.87c.1,1.12.16,1.89.25,2.87l-3.45.93c.78.87,1.17,1.69,1.75,1.86,1.33.39,2,1.29,1.59,2.39a4.15,4.15,0,0,1-2.06,2.15,15.34,15.34,0,0,1-3.65.71c-.72,2.17-1.5,4.45-2.22,6.74-1,3.17-1.24,3.28-4.77,1.8l-3.21,2.92c-.68-1.16,1.28-3-1.59-3.29-.74.78-1.63,1.76-2.57,2.7-2.81,2.79-5.84,4.34-9.87,2.26A54.64,54.64,0,0,0,81.69,318c-.37-.14-.89-.5-1.1-.38-2.19,1.31-4.55.18-6.8.58-4.36.77-4.46.6-5.6-3.51a14.28,14.28,0,0,0-1.54-2.64,15.66,15.66,0,0,0-1.55,2.37c-1.65,4.2-1.65,4-6.08,4.39-2.1.17-3.92.27-5.87-1.59,2.36-1.05,4.53-.76,6.78-.45s2.61-.3,2.92-3.38c-3,1.81-6,2-8.83-.26l-1.66,1.49c-.12-.16-.27-.33-.39-.51-2.46-3.89-1.36-8.1-1.17-12.25.13-2.68,1.16-4.44,4.1-4.56l1.55-4.86c-.54-.87-1.17-1.87-1.84-3,.5-.32.8-.66,1.14-.71a2.62,2.62,0,0,1,1.58.13c1.65,1,3.23,2.15,5.33,3.57l-4.37,1c1,1.62,2,3,2.8,4.39s1.43,2.88,2.13,4.32l5.88-.48c0,1.66.48,2.89,2.57,2.58-.26-2.53-.26-2.53-2.63-2.5.43-2.29-2-2.2-3.11-3.61l1.83-2.38-3.15-1.31.57-1.09c.59-.36,1.43-1.17,1.72-1A27.41,27.41,0,0,1,70.22,295c2.14-.64,4.4-1.69,6.86-.24.64.38,2.15-.13,2.86-.72.38-.31,0-1.71-.24-2.53a15.79,15.79,0,0,0-1.51-2.6c-.69.31-1.26.63-1.88.84-2.41.83-3.17.71-4.41-1.39A7.45,7.45,0,0,0,68,285c-.73-.29-1.19-1.28-2.11-2.33l4.64-1.16c-.14-2.13-.24-4.24-.45-6.35a1.66,1.66,0,0,0-.78-1.23c-1.89-.57-1-2.27-1.59-3.72a8.17,8.17,0,0,0-2.54.63c-4.81,3.15-6.37,3-10.39-.84a4.75,4.75,0,0,0-.84-.51l-2.48,1.39c0-.54-.25-1.06-.08-1.24a4.87,4.87,0,0,1,6.52-.44,14.88,14.88,0,0,1,1.47,1.8c1.3-.71,2.46-1.87,3.66-1.92,3.46-.15,5.17-2,6-5.07a15.94,15.94,0,0,1,.85-2l3.32.56c-.56-2.8-3-2.42-4.69-3.51.78-1.83.23-3.26-1.57-4.35a5.85,5.85,0,0,1-1.81-2.12c-2.33-4-3.88-4.25-7.57-1.2-2.94-.56-4.11-2.79-4.94-5.33.44-.53.87-1.07,1.3-1.61l-.75-.33Zm5.71-64.69-.21.14.16-.2.21-.16ZM166.53,260l-.22.17.17-.22.23-.18Zm-67.2-72.14c1.28-.31,2.66-.54,1.81-2.83-.68,1.13-1.22,2-1.75,2.88-.16.23-.33.47-.12.18C99.17,188.39,99.25,188.1,99.33,187.82Zm-10.59,91c-1.3,1-2.87,1.8-3.8,3.53,3-.32,3-.32,3.74-3.59l.2-.14Zm80.22-154c-.59-1-1.14-2.06-3.05-2.12.57.82.76,1.41,1.16,1.62a8,8,0,0,0,2,.44c.54,1.23,1.11,2.45,1.61,3.7,1.21,3.07,3.68,5.56,3.79,9.19a4.21,4.21,0,0,0,2.58,3.81c.85-2.68-.12-6.88-1.83-9.21a41.66,41.66,0,0,1-3.48-5.46C171.06,125.58,170.4,124.76,169,124.84ZM70.68,241.11c-.18-1.63-1-2.67-3.08-2.92-.16,1-.68,2-.33,2.56s1.53.61,2.37.73c.34.05.73-.28,1.1-.44-.15.93-.24,1.88-.48,2.79A2.48,2.48,0,0,0,71.67,247l6.07-3.59c.81-2.2.81-2.2.33-4.66C75.82,240.4,73.47,241.58,70.68,241.11Zm46.44,14.36c-1.05-5.07,1.77-7.65,3.47-11l3.23,2.82a34.08,34.08,0,0,0,1.87-4.82,30.17,30.17,0,0,0,.35-4.83l-3.12-1.26c.13-1,.24-1.87.35-2.66l-2-1.39c.65-1,1.15-1.8,1.3-2a37.39,37.39,0,0,0-.48-4.51c-.4-1.68-.65-3.6-1.66-4.87-1.54-1.94-3.68-3.4-5.75-5.23-1.56,2.25-4.34,3.87-3.65,6.65.81,3.22-.39,5.48-2.35,7.91a6.77,6.77,0,0,1,1.8,6.07,8.64,8.64,0,0,0,.73,5c.95,1.75,1.32,3.18.4,4.94-.84,1.6-.86,3,.71,4.36S115,253.33,117.12,255.47ZM67.07,245.3c-3-1.58,0-5.18-3.19-6.25-2.24,1.44.41,3.1-.6,4.7l-1.63-1.39-3.91,1c1.33-3.23-1-4.28-2.44-5.77s-1.52-4-3.88-4.94c-.19,4.21,2.33,6.94,3.95,10,1.46,2.78,4.7,3.15,7.06,4.91ZM113.25,127c-3.17-2.22-6-1.88-9.38-.32,1.76.65,3,1.08,4.28,1.6a8.94,8.94,0,0,0,6.38,0,6.09,6.09,0,0,0,4-6.32c-.06-.42-.91-.71-1.56-1.18Zm-20.09,1c.06-1.64.49-2.87,0-3.56-1.62-2.59-3.15-5.39-6.67-6.34v9.09C89,125.38,90.82,126.43,93.16,128.06ZM172,186.39l-3-5.22c-5.84-1.86-6.87-1.82-11,.7,1.71.11,3,.26,4.33.28,2.41,0,4.47.26,5.45,3.14C168.25,186.91,170,187.4,172,186.39ZM43.53,174.7c1.27.68,2.11,1.54,2.81,1.44,3-.42,6-1.1,9-1.73.36-.07.66-.42,1.05-.67C53.8,172.06,47.29,172.46,43.53,174.7ZM103,298.1c-3.06,0-4.29.56-4.89,2.5a8.23,8.23,0,0,0,.12,2.5l3.58-1.08,2.36,2.65.45-.28C104,302.28,103.48,300.17,103,298.1Zm66.9-120.44a12.87,12.87,0,0,0,6.71,5.92l1.26-2.41C174.82,180.74,174.09,176.73,169.85,177.66Zm-66.3,58.87A18.3,18.3,0,0,0,97.34,234a2.16,2.16,0,0,0-1.66,1.31,2.13,2.13,0,0,0,.83,1.94A7.38,7.38,0,0,0,103.55,236.53ZM73.6,229.05c.59-2-.15-3.34-1.83-4-1.94-.72-3.75.09-5.23,1.37-.29.25.1,1.29.18,2C70.86,227.13,70.86,227.13,73.6,229.05Zm31.53-72.13,6.18,1.42a17,17,0,0,0,1.24-1.44,3.38,3.38,0,0,0,.34-1.09C110.26,153.62,110.26,153.62,105.13,156.92ZM71.21,255.27c-.33-4.1-1.11-5-4.83-5.34C66.88,252.62,68.51,254.12,71.21,255.27ZM92.54,157c4.14,1.84,5.62,1.82,7.95-.13C97.8,155.43,95.32,155.73,92.54,157Zm30.51-2.21a16,16,0,0,0-7.77,0C118.47,156.67,119.3,156.66,123.05,154.74ZM68.66,189.86c1.57-1.14,2.89-1.65,3.43-2.61s-.06-2.07-1.75-2.35C69.19,185.82,68.37,187,68.66,189.86Zm20.2,123.39c2.74,1.95,2.74,1.95,4.33-.33C91.09,311.4,91.09,311.4,88.86,313.25Zm13.38-49.31c-.54,1.53.09,2.35,1.6,2.44s2.88.19,3.25-1.83Zm-5-138.54c1.19,2.19,2.21,2.53,5,1.67C100.73,125.88,99.39,124.68,97.26,125.4Zm29.35,42.52c-2.52-3.47-3.52-3.63-5-.78ZM93.36,184.55c2.26-2.15,2.28-2.82.53-5.42C93.69,181.2,93.53,182.87,93.36,184.55ZM167.7,257.1c1.87-.72,2.62-1.68,2.36-3.43C167.13,254.34,167.13,254.34,167.7,257.1ZM88.22,284.19c-1.94,2.89-1.94,2.89.79,4.84C88.77,287.55,88.56,286.3,88.22,284.19Zm18.75-112c2.21.88,3.38.39,4.3-1.69C109.41,170,108.2,170.32,107,172.21Zm12-.65c-2.32.2-3.34.8-3.69,2.77C117,174.28,118.11,173.84,119,171.56ZM154.42,248c-3.26-1-3.26-1-4.68,1.87Zm-77,57.09c1.94,3.2,1.94,3.2,4.38,2Zm-33-184.08,0,.85a2.52,2.52,0,0,0,3.55-.85Zm24.78,99c-.71-.66-1.13-1.36-1.58-1.37s-.93.63-1.4,1c.37.47.66,1.21,1.11,1.32S68.31,220.47,69.17,220Zm143,73.29c-1.45-1.22-1.45-1.22-3.07.24A2,2,0,0,0,212.13,293.29Zm-60.57-28.22c3.06-.15,3.06-.15,3.79-2.79ZM120.62,125.68c1.39-1.6,1.4-1.61.4-2.81-.06-.08-.46.13-1,.3C120.19,123.91,120.38,124.67,120.62,125.68Zm-70.81,41c-1.3,1.43-1.29,2.34-.47,3.63.36-.51.71-.8.72-1.11A17.77,17.77,0,0,0,49.81,166.64Zm125.91-18.29c-1.18,2-.72,2.69,1.42,3.27ZM108.27,295.53l.58-.63c-.48-1-1-1.89-3.18-1.6Zm72.23-28.68c1.84,1.3,2.5,1,2.91-1.18ZM79.2,279.71c-.12,1.71-.19,2.75-.26,3.8C80.27,282.58,80.87,281.6,79.2,279.71Zm25.9-20.42-1.08.42.9,2.16.79-.26Zm4.07-115.86.5-1a12.56,12.56,0,0,0-1.73-.75c-.08,0-.35.56-.53.86ZM97.24,314.93l-.59-1-1.74,1c.22.31.56.91.64.87A13.23,13.23,0,0,0,97.24,314.93ZM126.18,295c-2,.09-2,.09-1.36,2.1ZM96.05,169.31c-1.63,0-2.24.54-1.52,2.32Zm33,130a6.29,6.29,0,0,0-.53,1.8c0,.27.5.5.78.75.29-.36.78-.71.81-1.1S129.58,300.07,129,299.32Zm18.1-57.1,0-.74-2,.1,0,.74ZM77.15,257.65c-.57-.36-1-.79-1.16-.7A2.77,2.77,0,0,0,75.1,258c0,.08.6.69.76.63A5.74,5.74,0,0,0,77.15,257.65Zm73.75-14.87a5.69,5.69,0,0,0-1.46-.51c-.16,0-.54.76-.48.82a3.29,3.29,0,0,0,1.18.73C150.24,243.85,150.53,243.3,150.9,242.78ZM74.18,301.35l.94-.43a11.09,11.09,0,0,0-.81-1.21,1.47,1.47,0,0,0-.62.29A13,13,0,0,0,74.18,301.35Zm4.47-38-.75-.75-1.11,1.44.47.46Zm-3.27-38.25.79-.61L75,223.36l-.49.37Zm11.33,9c-.42-.35-.67-.71-1-.75s-.48.4-.71.63c.24.26.45.65.74.72S86.31,234.39,86.71,234.12Zm4.76,49.09c-.13-.37-.22-.81-.29-.81a5.07,5.07,0,0,0-1.08.23c.08.24.14.66.25.68A4.44,4.44,0,0,0,91.47,283.21Zm40.09,3.44a3.48,3.48,0,0,0-1-.12c-.11,0-.18.39-.27.6a4.36,4.36,0,0,0,1,.25C131.32,287.39,131.42,287,131.56,286.65Zm25.62,19.62a3.84,3.84,0,0,0-.12,1.08c0,.13.41.2.63.3a5,5,0,0,0,.26-1C158,306.53,157.54,306.42,157.18,306.27ZM85.9,309.63l.18.68,1.84-.54-.16-.59ZM46.4,111.07c-.29.39-.68.7-.63.91s.45.53.7.79c.25-.24.7-.49.69-.71S46.75,111.5,46.4,111.07ZM95.86,174l.54.63,1.5-1.65-.41-.39Zm-30.69,14.7.66.21.52-1.57a5.28,5.28,0,0,0-.63-.19C65.51,187.6,65.35,188.13,65.17,188.65Zm-3,2.15c-.38-.3-.68-.7-.89-.66a1.16,1.16,0,0,0-.73.72c-.05.15.42.66.63.65S61.72,191.12,62.14,190.8Zm19,120.3-.53-.67-1.1,1.2.37.42Zm45.75-24.59.62-.31c-.12-.19-.29-.57-.36-.55a3.22,3.22,0,0,0-.79.39ZM93.13,307.38c-.2-.13-.4-.38-.58-.36s-.4.27-.59.42a3,3,0,0,0,.75.47C92.78,307.93,93,307.57,93.13,307.38Zm78.26-34.32.44-.57-.71-.47c-.08.23-.25.46-.22.67S171.21,272.94,171.39,273.06ZM81,289.78l.61-.31c-.12-.2-.28-.58-.35-.57a4,4,0,0,0-.8.4Zm56.27-68.13.07-.33a5.51,5.51,0,0,0-.57-.06,1.49,1.49,0,0,0-.06.31ZM175.57,253l-.39.46c.09.07.25.21.27.19a5.73,5.73,0,0,0,.39-.45Zm-7.88-2.23c-.19-.09-.37-.19-.56-.26,0,0-.2.21-.17.25a3.19,3.19,0,0,0,.35.47ZM79.76,218.65l-.38.44a1.4,1.4,0,0,0,.26.19,4,4,0,0,0,.38-.44ZM163,120.77l.94.41c0-.2.18-.47.1-.6a.79.79,0,0,0-.58-.32C163.37,120.25,163.23,120.53,163,120.77ZM138.4,229.69c.21-.1.5-.14.6-.3s0-.44,0-.66c-.21.09-.5.13-.6.3S138.37,229.46,138.4,229.69ZM40.74,173.28a1.53,1.53,0,0,0,0-.34c-.21,0-.42,0-.63,0a2.11,2.11,0,0,0,0,.34A4.29,4.29,0,0,0,40.74,173.28ZM97.08,309.67c-.08-.06-.16-.19-.24-.18s-.21.1-.31.15l.38.34Zm73.61-2.4-.23.25.48.2c0-.11.1-.25.06-.33S170.8,307.31,170.69,307.27ZM158.15,226.7l-.18-.27a2.52,2.52,0,0,0-.31.44s.11.17.17.26ZM70.29,267.94l-.23-.22-.22.44c.11,0,.24.11.31.08S70.24,268.05,70.29,267.94Zm58.64-57.29-.22.25.46.19c0-.11.09-.24.05-.32S129,210.69,128.93,210.65ZM202.21,310l-.35.12a3.37,3.37,0,0,0,.44.33s.14-.16.21-.24ZM115.33,177.15l-.17-.31-.35.39c.11.05.21.15.31.15S115.26,177.23,115.33,177.15ZM50.92,241.47l.21.15,0-.23Zm25.14,6.87-.14.19.21,0ZM176.88,143.73l-.12-.23-.11.23Z"/><path class="cls-1" d="M67.09,58.55c3.23-.34,6.4-.7,9.58-1a4.7,4.7,0,0,1,2.28.22,5.45,5.45,0,0,0,6-.52c.84,2.19,2.48,2.6,4.44,3.12,2.39.63,4.52,2.28,6.76,3.51.47.25.9.59,1.6,1l3.42-1.75c.48-2.71.9-4.92,1.26-7.14a5.74,5.74,0,0,0,.09-2.43,16.15,16.15,0,0,1,.25-9.27c.85-3.17-.55-6-.41-9.58l-2.11,1.66c.23-2,.41-3.51.63-5.34l2.26.28c.11-.64.22-1.28.36-2.15a21.08,21.08,0,0,1,4.77.07c1.9.45,2,2.36,2.27,4.09l-2.25,3.18,2,1.38c.07,1.53.15,3.25.24,5.11l-1.93.73a132.2,132.2,0,0,1,6.07,23.27c2.93,0,4.55-2.72,7-3.55s5.07-2,6.31-3.82l6.6-.5A21,21,0,0,0,144.05,61c2.81-.09,4.84,1,6.92,2.83a72.57,72.57,0,0,0,9,6.35c1,.61,2.34.59,3.53.81,4.26.79,7.63,2.48,9.06,7.09.52,1.65,2.26,2.92,3.69,4.66a16.42,16.42,0,0,1-2.72,1.66A38.4,38.4,0,0,1,165,86.09a132.83,132.83,0,0,0-14.76,3.15c-3.43.82-6.8,1.84-10.49,2.85a51.34,51.34,0,0,0-4.13-4.35c-2.37-2-4.91-3.84-7.43-5.67a3.42,3.42,0,0,0-1.9-.62,8.48,8.48,0,0,1-4.78-1.92c-1.59-1.08-3.68-1.41-5.24-2l-6.55,4.67a5.91,5.91,0,0,0-7-1.89c-1.45.5-2.64-.25-3.57-1.39l-3-3.68c-1.08.46-2.58.63-3.17,1.45-1.66,2.33-4.21,2.31-6.23,2-3.53-.57-6,1.31-8.75,2.65-2,1-3.65,2.78-5.94,4.6-7-2.08-14-5.31-22-8.16,2.86,3.37,6.39,4.34,9.46,6S65.9,87.16,69.34,89c-1.53,1-2.75.11-3.91-.26-4.92-1.55-9.81-3.2-14.72-4.8-.52-.17-1.12-.55-1.56-.42-3.34.94-6.27-1.28-9.77-.85.27-3.13,1-5.58,3.82-6.61.37-4.83,1.92-6.91,6.73-8.18a23.41,23.41,0,0,0,8-3.76C60.8,62.06,63.94,60.44,67.09,58.55Zm-11,15c.77-1.72.38-2.49-.73-2.7a2.44,2.44,0,0,0-3.22,1.89Zm79.53-3.51c2.94.69,2.94.69,4.25-2.36C138,67.7,136.67,68.07,135.61,70.09ZM75.87,64.92c-.32,2.58-.32,2.58,1.22,4.09C78.65,67.27,77.53,66.31,75.87,64.92ZM89,71.53c-.2-.12-.42-.36-.6-.34s-.39.29-.58.45a3.38,3.38,0,0,0,.8.46C88.7,72.12,88.89,71.73,89,71.53ZM47.64,77.05c0-.11,0-.27-.06-.3a.9.9,0,0,0-.37,0l.09.45Z"/><path class="cls-1" d="M24,313.1v3.5a10.93,10.93,0,0,0-1.81-.39c-1.56,0-3.47,1.42-4.6-.15a26.72,26.72,0,0,1-3.1-6.54c-.39-1.08-.07-2.41-.07-3.75l1.44-.65c.15-1.84.29-3.44.47-5.52l-2.65,2.57c-3.49-4.32-.77-12,2.13-18l4.84-.54,3.92,7c2.77-1.18,2.92-1.36,2.25-3.42-.35-1.1-1.43-2.14.37-3.29,1.41,2,1.26,4.39,2,6.49s1.36,4,2.15,6.39c.2-2,.37-3.86.57-5.92a1.59,1.59,0,0,1,2.79.51,28,28,0,0,1,2.44,6.83c.3,1.65.28,3.2,2.11,4l-1.16,2.2-2.46-1.6c-1,1.44-2.11,2.57-2,4.91l2.91-1.46a58,58,0,0,1,5.53,2.24,12.32,12.32,0,0,1,3.86,2.88c1.08,1.33,1.52,3,3.41,3.83,1.31.59,1.44,2.42.74,4.2l-4.55-1.25-1.8,2.66c-2.26.95-4.45.22-6.65-.58s-4.27-1.5-6.48-2.27l.52-1.9-2.58.65c-1.37-.8-1.22-1.53.91-4.18L28,310.5c.9-3.24-.54-6.1-1.61-9.08-.27,1.95-.53,3.9-.83,6.05l-2.62.67c-.93,1.17-.52,2.89,1.17,5Zm3-18c.3-.41.7-.72.68-1s-.43-.56-.68-.83a6,6,0,0,0-.84,1.05C26.1,294.4,26.62,294.76,27,295.09Zm-6.21,9.23-.14,1,.73.06ZM21,293.85c0-.11.14-.23.12-.33s-.18-.11-.27-.16l-.19.54ZM17.56,298c0-.12.1-.26.06-.35s-.2-.13-.3-.19l-.1.54Zm16.93,17.87-.27-.15-.16.33.43.2Z"/><path class="cls-1" d="M4.36,300c1.42-.35,2.2-1.12,1.5-2.87l-1.44,2.92-.25.2Zm.75-12.54c-2.32-1.81-.32-2.79.52-4.28L0,282.29C1.2,284.47.62,287.84,5.11,287.47Zm-.57-8c.54.33,1,.73,1.1.65a2.7,2.7,0,0,0,.87-1.05c0-.08-.6-.68-.74-.62A5.86,5.86,0,0,0,4.54,279.46ZM4,293c-.29.41-.68.73-.64,1s.46.54.71.81c.23-.25.66-.51.65-.75S4.32,293.47,4,293Z"/><path class="cls-1" d="M43.71,32.29c-.37-.87-1.08-1.75-1.06-2.62,0-2.3-1.52-2.91-3.28-3.8L35.8,30.44c.22.89.42,1.82.66,2.73.82,3.08.82,3.06-1.64,5-1.42,1.12-2.53,2.38-2.4,4.43a10.07,10.07,0,0,1-.74,2.8c-3.35-1.26-6.1-2.47-6.29-6.49l2.44-1.42c.82-2.44,1.44-4.25,2.17-6.43-2.1-1.67-7-1.47-5.71-5.95l-6.71-4.75c-.37-1.54-.76-2.81-1-4.11-.52-3-1-6.05-1.39-9.1A3.54,3.54,0,0,1,16,5c1-1.38,2.16-2.65,3.73-4.52,2.06-1.09,3.39,1.61,5.74,2.85L24.27,0A7.14,7.14,0,0,1,29,1.34c1.15.89,2.46,1.56,3.69,2.33C32.3,6,32.3,6,28,5.71c.19,2.45,1.88,4.06,3.59,5.68a10.1,10.1,0,0,1-4.16.28c1.08,1.53,2,2.81,2.9,4.08-.67,3.34-3.23,3.31-6.43,3.2,2.07,2.13,3.51,3.84,5.18,5.27s3.62,2.66,5.43,4c4.66-3.36,4-8.87,6.79-13a4.86,4.86,0,0,0,3.64-4.51c2.63,1.49,1.68,4.28,3,6.07l3.56,2.06L49.59,23l-1.71-3.47H43.74c-.67,1.6-1.25,2.95-1.78,4.22,1.35,2.22,2.67,4.39,4.13,6.81l-2.45,1.64Z"/><path class="cls-1" d="M189.18,88.2,190.61,94l-.88,2.29c1,1.49,1.84,2.84,2.76,4.25l-3.3,5c-5.47-1.49-11-2.79-16.4-4.54a42.9,42.9,0,0,0-8.71-1.84c-5.8-.63-11.53-1.89-17.42-1.4a9.48,9.48,0,0,1-3.22-.33c-.5-.14-.85-.86-1.73-1.81,2-.74,3.61-1.44,5.23-1.86,7.89-2,15.76-4.13,23.71-5.87,4.57-1,9.23-2.33,14-.38A19.75,19.75,0,0,0,189.18,88.2Z"/><path class="cls-1" d="M172.27,33.93l-2.61-3.05c1-2.2,2.42-3.86,5.69-2.83L175.23,27c-.93-1.09-1.72-2.93-2.81-3.12-3.2-.56-4-3.61-6.35-5,1.24-1.91,2.47-3.12,4.76-2.84.81.1,1.69-.55,2.56-.79,1.22-.35,2.46-.65,3.82-1,0,.76.1,1.12,0,1.22-3.17,2.57-3.14,2.88.3,4.91.57.34,1,.83.84.66l2.62,9c3.22,2.22,6,2,9.11-.19,2.61-1.85,5.47-3.67,8.94-3.53a16.69,16.69,0,0,1,2.63.59,11.66,11.66,0,0,1-5,8.09,15.85,15.85,0,0,0-5.74,6c-1.45,2.73-4.16,4.14-7,5.05-.52.17-1.23-.3-1.86-.47,1.1-4,1.06-3.92-1.33-7.49-1.42-2.11-2.11-4.8-4.91-5.94l-3.52,1.74Z"/><path class="cls-1" d="M192.31,23.72c.41-1.71.78-3.23,1.26-5.21L197.05,17a13.26,13.26,0,0,1,1.24-2.72c.84-1.13,1.57-2.13,3.6-1.77,1.61.29,3.55-.86,5.25-1.59a3.23,3.23,0,0,1,4.25,1c-.82,2.88-1.41,6.07-2.69,9-.54,1.2-2.43,2.09-3.88,2.52-2.18.65-4.65.4-6.74,1.2a6.38,6.38,0,0,1-5-.11C192.81,24.38,192.66,24.1,192.31,23.72Z"/><path class="cls-1" d="M12.8,172.57a25.3,25.3,0,0,1,7.61-6.42c4.2,2.16,8.55,1,13.22,1a9.93,9.93,0,0,1-6.37,5.09c-1.39.43-1.85,0-3.14-2l-3.06,1.86-1-1.82c-.34.11-.82.12-1,.37C17.52,172.39,15.89,173.63,12.8,172.57Z"/><path class="cls-1" d="M39.72,269.77l1.29,3-2.55,1c.33-5.69.07-10.87-2.75-15.66,2.38-.09,2.38-.09,3.23,3l7.62-1.48,1.88,2.83-5,1.64C43.63,266.43,42.18,268.39,39.72,269.77Z"/><path class="cls-1" d="M202.19,264.31c.81.11,2-.09,2.37.37,1.87,2.42,3.56,5,5.21,7.55.23.36,0,1-.07,1.53l-5.25,2.06c-1.08-1.45-2.22-2.93-1-5a2.78,2.78,0,0,0-.61-4,6.78,6.78,0,0,1-1-1.64Z"/><path class="cls-1" d="M190,261.26l6.23-1,2,6.57-4-2.26c.54,2.88,1,5.23,1.48,7.82l-1.72.65C192.92,269.09,192.43,265.25,190,261.26Z"/><path class="cls-1" d="M19.15,248.48c.58-2.52,2.5-3.34,4.76-3.67s4.67-.62,7.14-.95l2.67-4c1.65.32,1.85,1.41,1.63,2.71a3.12,3.12,0,0,1-2.55,2.8c-1.83.38-3.73,1.27-5.46,1-2-.31-3.28,1.09-5,1.32l-.16-.22.22.16-.73,1.9-2.63-1.09Z"/><path class="cls-1" d="M19.08,248.43l.68,3-3.52,4.12-.92-1.65-2.62,1.74c-1.28-1.41-.46-2.65.37-2.91,2.52-.81,3.83-3.18,6.08-4.26Z"/><path class="cls-1" d="M222.43,306.32l-3.72-3.39c.78-.72,1.37-1.67,1.83-1.61,2.23.27,4.53.66,5.82,3.63Z"/><path class="cls-1" d="M29.75,261.85l-3.69,7.23c-1.27-2.67-1.63-4.93.29-7.17C27.27,260.85,28.22,260.4,29.75,261.85Z"/><path class="cls-1" d="M51.06,27.39,53,27c4.21,3.21,4.21,3.21,3.58,5.2L50.41,30c.26-1,.48-1.85.7-2.7Z"/><path class="cls-1" d="M184.27,235.74c2.87-.52,4.08,2.22,6.15,3.09.41.18.28,1.62.43,2.69C185.68,239.34,185.47,239.15,184.27,235.74Z"/><path class="cls-1" d="M63.52,255.09c.35,2.28.63,4.06,1,6.23l-5.73-1.38v-2.88l2.72,1.05Z"/><path class="cls-1" d="M190.19,254.74l-.8-7,.71-.25,1.89,2.72,1.78-.65.47,2.93Z"/><path class="cls-1" d="M204.94,258.22c.77,1.84,1.53,3.63,2.29,5.44-3.58-.44-3.6-.45-5.61-3.86Z"/><path class="cls-1" d="M186.43,274.13c.42-1.78.27-3.83,2.91-4.29a3.58,3.58,0,0,1,.13,4.82C188.65,275.76,187.6,275.45,186.43,274.13Z"/><path class="cls-1" d="M40.21,299c3.5,2.77,4.08,3.46,5.25,6.29C42.6,305.15,40.56,302.69,40.21,299Z"/><path class="cls-1" d="M172.2,33.87c-.26,4.54-2,5.56-7,4,1-2.27,3.13-.77,4.13-1.2l3-2.76Z"/><path class="cls-1" d="M176.17,39.91a2.35,2.35,0,0,1,1.23,4.38c-1.05.43-2.39-1.11-2.28-2.69C175.17,41,175.85,40.39,176.17,39.91Z"/><path class="cls-1" d="M27.56,158.2l-4.77-.48c.86-2,2.13-2.41,3.43-2.25.67.08,1.24,1,1.86,1.5Z"/><path class="cls-1" d="M184.54,246l-2,4c-1.7-2.76-1.7-2.77,1.34-6.16l.63,2.27Z"/><path class="cls-1" d="M40.22,252.05l-3.93.2,1.21-4.86h.69C38.75,248.68,39.32,250,40.22,252.05Z"/><path class="cls-1" d="M37.65,289.45C36,288.6,34.82,287.83,35,286,38.27,285.58,38.89,286.28,37.65,289.45Z"/><path class="cls-1" d="M16.77,261.09c.59-3.32,2.84-3.92,5.55-4.95C21.22,259.06,19.21,260,16.77,261.09Z"/><path class="cls-1" d="M43.64,32.24l2.82,4.43c-1.6.66-1.91-.94-2.79-1.42a9.67,9.67,0,0,0-2.84-.56c.3-1.54,1.79-1.74,2.88-2.4Z"/><path class="cls-1" d="M153.76,221.4c-.23-1.92-.46-3.84-.76-6.23C155.35,217.25,155.37,217.36,153.76,221.4Z"/><path class="cls-1" d="M113.77,312.93v4.6C111.13,316.76,111.06,316,113.77,312.93Z"/><path class="cls-1" d="M2,273.07c-.09-2.74,2-2.81,3.9-3.23-1.19,3.06-1.19,3.06-4,3.16Z"/><path class="cls-1" d="M39.29,41.6c-.08-1.55.38-2.56,1.94-2.38.44.05,1.21,1,1.13,1.29C41.92,42.34,40.65,42.09,39.29,41.6Z"/><path class="cls-1" d="M29.79,199l1.51-2.95L34,198.49l-3.58,1.22Z"/><path class="cls-1" d="M201.36,172.19c-.38-1.38-.64-2.35-.89-3.25,1.2-.84,2.08-.77,2.55.34S203.1,171.35,201.36,172.19Z"/><path class="cls-1" d="M149.61,115.05c-1.63.19-3.17.16-4.16-1.81C147.61,112.42,148.81,113.23,149.61,115.05Z"/><path class="cls-1" d="M29.83,269.31a5.92,5.92,0,0,1,1.12-5C31.45,266.56,32,268.22,29.83,269.31Z"/><path class="cls-1" d="M185,48.88c-1.66,2-2.76,1.12-4.14-.51C182.56,47.72,183.79,47.5,185,48.88Z"/><path class="cls-1" d="M182.62,230.55c2,.24,2.9.92,3.12,2.66C183.42,234.05,182.89,232.83,182.62,230.55Z"/><path class="cls-1" d="M10.09,247.94c-.24-1.61.19-2.73,1.85-3.33C12.82,246.79,11.33,247.33,10.09,247.94Z"/><path class="cls-1" d="M143.75,313.68c2.18-.54,2.72.31,3,1.9C145.11,316,144.2,315.59,143.75,313.68Z"/><path class="cls-1" d="M196.63,248.19c1.75.19,1.75.19,2.31,1.94C197.3,249.88,197.3,249.88,196.63,248.19Z"/><path class="cls-1" d="M32.47,249.57c-.39-2.52.89-2.84,2.57-3C34.57,248.28,34.57,248.28,32.47,249.57Z"/><path class="cls-1" d="M45.62,256.6c-.09-2.64,1.36-2.8,3.25-3.18C48.34,255.12,47.48,255.89,45.62,256.6Z"/><path class="cls-1" d="M146,192.83c1.88.36,2.46,1.76,3.11,3.71-2.52-.47-3.08-1.88-3-3.77Z"/><path class="cls-1" d="M57.75,262.71l2.67,3.52C57.69,265.74,57.05,264.74,57.75,262.71Z"/><path class="cls-1" d="M61,282.48l-.71-3c2.24.7,2.41,1.54,1.8,2.68Z"/><path class="cls-1" d="M55.87,275.76l4,.26C58.25,277.66,58.25,277.66,55.87,275.76Z"/><path class="cls-1" d="M51.55,255.35l-1-3,.83-.32,1.31,2.82Z"/><path class="cls-1" d="M9.41,260.38c1-1.51,1.59-2.59,3.53-2.76C12.15,259.26,11.41,260.18,9.41,260.38Z"/><path class="cls-1" d="M48,292.29l-3.18.24C45.82,290.64,46.85,291.11,48,292.29Z"/><path class="cls-1" d="M24.06,313.17l.74-2.82,1.93,3.3L24,313.1Z"/><path class="cls-1" d="M1.9,273,.56,275.5c-.81-2.42-.81-2.42,1.4-2.43Z"/><path class="cls-1" d="M225.27,312.1,222.72,310l.45-.61,2.76,1.93Z"/><path class="cls-1" d="M194.29,241.67c-1.19-.65-2.24-1.34-.55-2.65Z"/><path class="cls-1" d="M184.48,246c2.14.72,2.14.72,2.17,3.82-.9-1.66-1.51-2.77-2.11-3.89Z"/><path class="cls-1" d="M161.43,213.59c-.43.48-.75,1-.87.94a2.71,2.71,0,0,1-1.1-.78c-.06-.06.37-.79.53-.77A5.35,5.35,0,0,1,161.43,213.59Z"/><path class="cls-1" d="M33.06,277.08c-1.3-.71-1.79-1.74-1.31-3.5,1.51,1,1.07,2.4,1.25,3.56Z"/><path class="cls-1" d="M57.57,15.88l-1,3.66c-.64-2.48-.64-2.48,1-3.59Z"/><path class="cls-1" d="M192.28,145.26l-2.58-1.35C191.59,142.69,192.05,144,192.28,145.26Z"/><path class="cls-1" d="M185.28,226l-5,.95C182,225.3,183.12,225.5,185.28,226Z"/><path class="cls-1" d="M203.37,253.73l1.19,1-.71.66-.94-1.22Z"/><path class="cls-1" d="M5.94,310.09l-.74,1-1.06-.85c.27-.25.51-.66.82-.71S5.54,309.83,5.94,310.09Z"/><path class="cls-1" d="M37.93,192.8c1.27,1,1.27,1-.42,2.32l.5-2.38Z"/><path class="cls-1" d="M180.38,201.33h1.9l0,.74-1.91-.12Z"/><path class="cls-1" d="M168.12,201c1.2.34,1.94.94,1.24,2.54-1.27-.54-1.18-1.59-1.17-2.6Z"/><path class="cls-1" d="M63.43,284.22l1.7,2.08-.32.35-2.06-1.83Z"/><path class="cls-1" d="M14.18,241.34c.4.29,1,.61.93.69a6.2,6.2,0,0,1-.74,1.12c-.26-.25-.67-.48-.72-.76S13.94,241.77,14.18,241.34Z"/><path class="cls-1" d="M163,207.31l-.76-.44a3.48,3.48,0,0,1,.68-.7c.11-.06.41.21.62.33Z"/><path class="cls-1" d="M48.07,227.22v-1.73h.55v1.72Z"/><path class="cls-1" d="M63.63,266a4.75,4.75,0,0,1-1.1.09c-.13,0-.18-.43-.27-.66a5.12,5.12,0,0,1,1.07-.23C63.41,265.24,63.5,265.67,63.63,266Z"/><path class="cls-1" d="M9.59,266.62l.78.52a3.91,3.91,0,0,1-.71.75c-.1.05-.42-.25-.64-.39Z"/><path class="cls-1" d="M211,269.31a4.54,4.54,0,0,1-1.08.09c-.12,0-.17-.43-.25-.67a5.55,5.55,0,0,1,1-.23C210.79,268.5,210.88,268.93,211,269.31Z"/><path class="cls-1" d="M50,289.39c-.52.29-.85.61-1.1.56s-.39-.49-.57-.76c.2-.14.44-.4.62-.37A4.34,4.34,0,0,1,50,289.39Z"/><path class="cls-1" d="M184.78,26a4.77,4.77,0,0,1-1,.09c-.1,0-.15-.41-.22-.63a5.87,5.87,0,0,1,1-.22C184.59,25.28,184.67,25.69,184.78,26Z"/><path class="cls-1" d="M116.63,315.15l1.19-1.12.51.42-1,1.41Z"/><path class="cls-1" d="M50.61,41.3l-1.18,1.16-.94-.82.94-1.44Z"/><path class="cls-1" d="M31.87,172.25,33,171l.53.37-.91,1.5Z"/><path class="cls-1" d="M183.69,193.64c1,.18,2,.39,2,2.73l-2-2.79Z"/><path class="cls-1" d="M142,210.05c-.14.16-.26.44-.42.46s-.44-.16-.66-.26l.55-.66Z"/><path class="cls-1" d="M72.73,7.58c-.17.13-.38.4-.5.37s-.32-.32-.48-.5l.69-.52C72.53,7.15,72.63,7.36,72.73,7.58Z"/><path class="cls-1" d="M49.05,8.13l.53-.47a4.81,4.81,0,0,1,.3.88c0,.05-.39.16-.61.25C49.2,8.57,49.13,8.35,49.05,8.13Z"/><path class="cls-1" d="M19.4,156.78c-.16.17-.41.51-.46.48a3.17,3.17,0,0,1-.66-.56c.21-.13.42-.34.64-.34S19.24,156.63,19.4,156.78Z"/><path class="cls-1" d="M57.63,16l1.24-1.52.47.56-1.77.89Z"/><path class="cls-1" d="M36.74,164.35l.45.49-.93.47c-.06-.22-.25-.51-.17-.63S36.51,164.45,36.74,164.35Z"/><path class="cls-1" d="M11.85,160.65c-.15.2-.37.58-.44.56a3.43,3.43,0,0,1-.77-.51c.21-.15.4-.39.62-.41S11.65,160.52,11.85,160.65Z"/><path class="cls-1" d="M46.57,268.34l.44.51-.92.48c-.06-.22-.24-.51-.16-.65S46.35,268.45,46.57,268.34Z"/><path class="cls-1" d="M51.93,35.64c-.17.19-.31.48-.47.48s-.43-.19-.64-.3a2.75,2.75,0,0,1,.63-.6C51.52,35.18,51.79,35.51,51.93,35.64Z"/><path class="cls-1" d="M40.85,276.67l-.53-.51a3.77,3.77,0,0,1,.87-.35c.07,0,.21.39.32.61Z"/><path class="cls-1" d="M49.75,284.51c-.15.19-.35.56-.42.54a3.67,3.67,0,0,1-.78-.5c.2-.15.39-.41.61-.42S49.55,284.37,49.75,284.51Z"/><path class="cls-1" d="M22.7,253l1.19-1.4a7.09,7.09,0,0,1,0,1.22A4.67,4.67,0,0,1,22.7,253Z"/><path class="cls-1" d="M70.71,291l-1.14-.89.28-.25.81,1.2Z"/><path class="cls-1" d="M219.27,309.85l-.5.36c-.06-.1-.19-.27-.17-.29s.32-.25.48-.38Z"/><path class="cls-1" d="M147.92,318.27l-.55-.08a1.49,1.49,0,0,1,.06-.31,5,5,0,0,1,.56.06Z"/><path class="cls-1" d="M154.85,27.08l-.52.41c-.11-.2-.34-.41-.32-.59s.33-.29.51-.43Z"/><path class="cls-1" d="M115.31,30.81l-.55-1,.7,0Z"/><path class="cls-1" d="M22.21,262.89l-.49.43-.34-.88.63-.21C22.07,262.45,22.14,262.67,22.21,262.89Z"/><path class="cls-1" d="M167.64,241.35l-.63-.08a2,2,0,0,1,.06-.35,4.48,4.48,0,0,1,.64.06Z"/><path class="cls-1" d="M181.78,240.26c-.12-.18-.36-.38-.34-.53s.27-.39.42-.59c.13.17.39.36.36.49S182,240,181.78,240.26Z"/><path class="cls-1" d="M28.39,282.25l-.59-.08a2.34,2.34,0,0,1,.07-.33c.2,0,.4,0,.6.06Z"/><path class="cls-1" d="M177.12,231.2c.16.18.37.33.43.54s-.22.28-.34.43a1.62,1.62,0,0,1-.43-.53C176.75,231.53,177,231.35,177.12,231.2Z"/><path class="cls-1" d="M21.08,183.91a4,4,0,0,1-.59,0,1.92,1.92,0,0,1,0-.33l.6,0A1.6,1.6,0,0,1,21.08,183.91Z"/><path class="cls-1" d="M185.3,252.05l-.26-.24.52-.3c0,.13.11.28.07.37S185.41,252,185.3,252.05Z"/><path class="cls-1" d="M192.62,175.85c0,.1,0,.26-.05.3a.83.83,0,0,1-.36,0l.06-.45Z"/><path class="cls-1" d="M142.93,11.08c0,.11-.06.28-.13.31s-.23,0-.35-.06l.21-.48Z"/><path class="cls-1" d="M122.69,18.2c0,.11-.06.27-.13.3s-.21-.05-.31-.08l.21-.44Z"/><path class="cls-1" d="M188.21,244.3c-.07.08-.14.23-.21.23s-.21-.1-.32-.15l.36-.4Z"/><path class="cls-1" d="M40.08,247.57c-.1,0-.25-.08-.28-.15a1.27,1.27,0,0,1,0-.39l.46.2Z"/><path class="cls-1" d="M39.92,203.27c0,.11.1.24.07.34s-.17.15-.26.22l-.15-.51Z"/><path class="cls-1" d="M207.6,242.24c-.11,0-.24.1-.34.07s-.15-.17-.22-.26l.52-.15Z"/><path class="cls-1" d="M51.11,27.33l-1.54-.15.11-.41,1.38.62Z"/><path class="cls-1" d="M51.18,263.51c-.1,0-.22.09-.3.06s-.13-.16-.2-.24l.45-.12Z"/><polygon class="cls-1" points="179.24 238.46 179.35 238.77 179.06 238.72 179.24 238.46"/><polygon class="cls-1" points="14.58 274.78 14.51 274.55 14.72 274.59 14.58 274.78"/><path class="cls-1" d="M146.07,192.77c-.17-.23-.33-.47-.13-.19-.09-.32,0,0,.06.25Z"/><polygon class="cls-1" points="67.52 288.05 67.51 288.29 67.28 288.17 67.52 288.05"/><path class="cls-1" d="M70.66,291.07l.76.2-.71-.26Z"/><polygon class="cls-1" points="49.04 301.53 49.13 301.81 48.88 301.77 49.04 301.53"/><path class="cls-1" d="M181.26,106l.62-.48-.68.41Z"/><polygon class="cls-1" points="66.66 317.76 66.44 317.62 66.68 317.54 66.66 317.76"/><polygon class="cls-1" points="33 277.14 33.23 277.31 33.06 277.08 33 277.14"/><polygon class="cls-1" points="13.41 273.06 13.58 272.83 13.35 273.01 13.41 273.06"/><polygon class="cls-1" points="183.75 193.58 183.54 193.42 183.69 193.64 183.75 193.58"/><path class="cls-1" d="M5.11,287.47c-4.49.37-3.91-3-5.11-5.18l5.63.9C4.79,284.68,2.79,285.66,5.11,287.47Z"/><path class="cls-1" d="M4.54,279.46a5.86,5.86,0,0,1,1.23-1c.14-.06.77.54.74.62a2.7,2.7,0,0,1-.87,1.05C5.52,280.19,5.08,279.79,4.54,279.46Z"/><path class="cls-1" d="M4.42,300.06l1.44-2.92c.7,1.75-.08,2.52-1.5,2.87Z"/><path class="cls-1" d="M4,293c.33.44.71.73.72,1s-.42.5-.65.75c-.25-.27-.66-.51-.71-.81S3.7,293.44,4,293Z"/><polygon class="cls-1" points="4.36 300.01 4.17 300.26 4.42 300.06 4.36 300.01"/></g></g></svg>