<svg version="1.1" id="Layer_1" xmlns="http://www.w3.org/2000/svg" xmlns:xlink="http://www.w3.org/1999/xlink" x="0px" y="0px"
	 viewBox="0 0 168 600" style="enable-background:new 0 0 168 600;" xml:space="preserve">
<style type="text/css">
	.st0{fill:none;}
	.st1{fill:#2A0F0F;}
</style>
<g>
	<path class="st0" d="M128.6,544.2c0.2,0.2,0.4,0.4,0.6,0.7c0.7-0.5,1.4-1,2-1.5c-0.3-0.4-0.6-0.7-0.9-1.1
		C129.7,543,129.2,543.6,128.6,544.2z"/>
	<path class="st0" d="M132,508.4c-0.2-0.3-0.5-0.9-0.6-0.9c-0.5,0.1-0.9,0.4-1.3,0.7c0.3,0.3,0.6,0.5,0.9,0.8
		C131.4,508.7,131.7,508.5,132,508.4z"/>
	<path class="st0" d="M124.2,467.3c0.3,0.2,0.5,0.5,0.8,0.7c0.7-0.6,1.5-1.2,2.2-1.9c-0.4-0.4-0.8-0.8-1.2-1.2
		C125.4,465.8,124.8,466.5,124.2,467.3z"/>
	<polygon class="st0" points="123.1,442.2 123,441.8 122.8,442.1 	"/>
	<path class="st0" d="M122.9,455.8c-0.6,0.4-1.1,1.1-1.4,1.8c-0.1,0.1,1,1.1,1.2,1c0.7-0.3,1.2-0.9,2.1-1.6
		C123.9,456.3,123.1,455.6,122.9,455.8z"/>
	<path class="st0" d="M157,541.1c-0.1-0.1-0.3-0.3-0.4-0.3c-0.2,0-0.3,0.2-0.5,0.3c0.2,0.2,0.4,0.4,0.6,0.5
		C156.8,541.4,156.9,541.2,157,541.1z"/>
	<path class="st0" d="M154.6,551.1c1-0.4,1.8-1,2.7-1.5c-0.3-0.5-0.6-1.1-1-1.6c-0.9,0.6-1.9,1.1-2.8,1.7
		C153.9,550.2,154.4,551.1,154.6,551.1z"/>
	<path class="st0" d="M150.6,537.4c-0.3-0.2-0.6-0.6-0.9-0.6c-0.3,0-0.6,0.4-1,0.7c0.4,0.3,0.8,0.6,1.2,0.8
		C150.1,538.3,150.4,537.7,150.6,537.4z"/>
	<path class="st0" d="M129.4,394.1c-0.1-0.1-0.3-0.2-0.4-0.3c-0.2,0.2-0.4,0.5-0.6,0.7c0.1,0.1,0.4,0.3,0.4,0.3
		C129,394.6,129.2,394.3,129.4,394.1z"/>
	<path class="st0" d="M132.3,537c-2.1-1-4-1.9-7.1-3.3C128.3,538.9,128.3,538.9,132.3,537z"/>
	<path class="st0" d="M126.3,426.3c-3.6,2.7-7.4,4.6-11.9,3.8c-0.2,1.5-0.4,3-0.8,4.4c-0.7,2.6,0.3,4.2,2.3,5.1
		c3.4-2,6.4-3.8,9.8-5.8C127,430.3,127,430.3,126.3,426.3z"/>
	<polygon class="st0" points="82.7,431 82.7,430.6 82.3,430.7 	"/>
	<path class="st0" d="M108.8,397.5c0.7,0.2,1.6-0.8,3-1.5c-1.2-1.1-1.8-2.2-2.6-2.2c-0.7,0-1.5,1-2.3,1.6
		C107.6,396.1,108.1,397.3,108.8,397.5z"/>
	<path class="st0" d="M123.2,403.3c-0.6-0.6-1.2-1.3-1.8-1.9c-0.3,0.2-0.5,0.4-0.8,0.6c0.4,0.8,0.9,1.5,1.3,2.3
		C122.3,404,122.8,403.7,123.2,403.3z"/>
	<path class="st0" d="M107.9,409.7c6.7-2.2,6.7-2.2,11.1,0.9c1-3.2-0.2-5.4-3-6.4c-3.1-1.2-6.1,0.1-8.5,2.2
		C107.1,406.8,107.8,408.5,107.9,409.7z"/>
	<path class="st0" d="M109.3,425.4c-0.3,1.6-1.1,3.3-0.5,4.2c0.6,0.9,2.5,1,3.8,1.2c0.5,0.1,1.1-0.4,1.7-0.7
		C114,427.5,112.7,425.8,109.3,425.4z"/>
	<path class="st0" d="M103.3,426.8c-3.6,2.3,0.7,5-1,7.6c-1-0.8-1.8-1.6-2.6-2.2c-1.8,0.5-3.4,0.9-6.3,1.6c2.2-5.2-1.6-6.9-4-9.3
		c-2.3-2.3-2.5-6.4-6.3-8c-0.3,6.8,3.8,11.2,6.4,16.2c2.4,4.5,7.6,5.1,11.4,7.9c2.1-1,4.1-2,7.5-3.7
		C103.5,434.4,108.5,428.5,103.3,426.8z"/>
	<path class="st0" d="M107.4,444.4c0.8,4.3,3.4,6.8,7.8,8.6C114.6,446.4,113.4,445,107.4,444.4z"/>
	<path class="st0" d="M128.1,492.6c-0.2,2.8-0.3,4.5-0.4,6.1C129.8,497.2,130.8,495.6,128.1,492.6z"/>
	<path class="st0" d="M152.9,317.7c1.1-1.7,1.8-2.7,2.5-3.8C152.7,313.9,151.7,314.8,152.9,317.7z"/>
	<path class="st0" d="M163.6,339.3c-1.1,1.8-1.9,3.2-2.8,4.5C162.9,343.4,164.9,342.9,163.6,339.3z"/>
	<path class="st0" d="M149.7,294c6.7,3,9.1,2.9,12.9-0.2C158.2,291.5,154.2,292,149.7,294z"/>
	<path class="st0" d="M151,338.6c3.6-3.5,3.7-4.6,0.9-8.8C151.5,333.2,151.3,335.9,151,338.6z"/>
	<path class="st0" d="M155.1,321.5c0.3,0.3,0.6,0.7,0.9,1c0.8-0.9,1.6-1.8,2.4-2.7c-0.2-0.2-0.4-0.4-0.7-0.6
		C156.8,319.9,155.9,320.7,155.1,321.5z"/>
	<path class="st0" d="M150.7,546.3c-3.4-2.5-3.4-2.5-7,0.5C148.2,550,148.2,550,150.7,546.3z"/>
	<path class="st0" d="M157.4,418.7c-0.8-0.1-2.4,1.2-2.7,2.1c-0.2,0.9,0.5,2.8,1.3,3.1c3.4,1.4,7,1.4,11.4-1.2
		C163.7,420.7,160.8,419.1,157.4,418.7z"/>
	<path class="st0" d="M143.4,491.2c-2.1,1.6-4.5,2.9-6,5.6C142.2,496.3,142.3,496.3,143.4,491.2z"/>
	<path class="st0" d="M138.9,541c0.1,0.4,0.2,0.7,0.3,1.1c1-0.3,2-0.6,3-0.9c-0.1-0.3-0.2-0.6-0.3-1
		C140.9,540.5,139.9,540.8,138.9,541z"/>
	<path class="st0" d="M144,507.7c-0.4-2.4-0.7-4.4-1.3-7.8C139.6,504.5,139.6,504.5,144,507.7z"/>
	<path class="st0" d="M138.8,419.8c0.3,0.1,0.9-0.5,1.5-1c-0.7-0.6-1.1-1.2-1.6-1.2c-0.3,0-0.8,0.7-1.1,1
		C137.9,419,138.3,419.7,138.8,419.8z"/>
	<path class="st0" d="M147.5,496.9c-0.6,0-1.2,0.2-1.7,0.4c0.1,0.4,0.2,1.1,0.4,1.1c0.6,0.1,1.2-0.1,1.8-0.2
		C147.7,497.7,147.6,496.9,147.5,496.9z"/>
	<path class="st0" d="M160.5,344.4c0,0,0-0.1,0.1-0.1l0,0C160.5,344.3,160.5,344.4,160.5,344.4z"/>
	<path class="st0" d="M160.5,344.4C160.5,344.4,160.5,344.4,160.5,344.4C160.5,344.4,160.5,344.4,160.5,344.4z"/>
	<path class="st0" d="M165.5,245.6c-2.5-1.9-4.7-3.9-8.2-2.7C159.2,246.4,160.9,247,165.5,245.6z"/>
	<path class="st0" d="M162.6,550.4c-1.2,1.2-2.6,2.8-4.1,4.4c-4.6,4.5-9.5,7-16,3.7c-3.2-1.7-6.9-2.6-10.3-3.9
		c-0.6-0.2-1.4-0.8-1.8-0.6c-3.5,2.1-7.4,0.3-11,0.9c-7.1,1.2-7.2,1-9.1-5.7c-0.4-1.3-1.4-2.4-2.5-4.3c-1.2,1.8-2.1,2.7-2.5,3.8
		c-2.7,6.8-2.7,6.5-9.8,7.1c-3.4,0.3-6.3,0.4-9.5-2.6c3.8-1.7,7.3-1.2,11-0.7c3.5,0.5,4.2-0.5,4.7-5.5c-4.9,2.9-9.7,3.2-14.3-0.4
		c-1,0.9-1.8,1.6-2.7,2.4c-0.2-0.3-0.4-0.5-0.6-0.8c-4-6.3-2.2-13.1-1.9-19.8c0.2-4.3,1.9-7.2,6.6-7.4c0.8-2.6,1.6-5.1,2.5-7.9
		c-0.9-1.4-1.9-3-3-4.8c0.8-0.5,1.3-1.1,1.8-1.2c0.8-0.1,1.9-0.2,2.6,0.2c2.7,1.6,5.2,3.5,8.6,5.8c-2.4,0.5-4.3,0.9-7.1,1.6
		c1.7,2.6,3.2,4.8,4.5,7.1c1.3,2.3,2.3,4.7,3.4,7c3.5-0.3,6.4-0.5,9.4-0.8c0.6-3.6-3.3-3.5-5-5.7c0.8-1,1.5-1.9,3-3.9
		c-1.5-0.6-3.3-1.4-5.1-2.1c0.3-0.6,0.6-1.2,0.9-1.8c0.9-0.6,2.3-1.9,2.8-1.6c1.8,1.1,3.4,2.6,5.4,4.2c3.5-1,7.1-2.7,11.1-0.4
		c1,0.6,3.5-0.2,4.6-1.2c0.6-0.5,0.1-2.8-0.4-4.1c-0.5-1.4-1.5-2.6-2.5-4.2c-1.1,0.5-2,1-3,1.4c-3.9,1.3-5.1,1.1-7.1-2.2
		c-1.5-2.6-3.5-4.4-6.3-5.5c-1.2-0.5-1.9-2.1-3.4-3.8c2.8-0.7,4.8-1.2,7.5-1.9c-0.2-3.4-0.4-6.9-0.7-10.3c-0.1-0.7-0.7-1.8-1.3-2
		c-3.1-0.9-1.7-3.7-2.6-6c-1.4,0.3-3,0.3-4.1,1c-7.8,5.1-10.3,4.9-16.8-1.4c-0.3-0.3-0.7-0.5-1.4-0.8c-1.2,0.7-2.4,1.4-4,2.3
		c-0.1-0.9-0.4-1.7-0.1-2c2.7-2.9,7.7-3.2,10.5-0.7c1,0.9,1.7,2,2.4,2.9c2.1-1.2,4-3,5.9-3.1c5.6-0.3,8.4-3.2,9.7-8.2
		c0.3-1,0.8-2,1.4-3.3c1.7,0.3,3.3,0.6,5.4,0.9c-0.9-4.5-4.9-3.9-7.6-5.7c1.3-3,0.4-5.3-2.5-7c-1.2-0.7-2.2-2.1-2.9-3.4
		c-3.8-6.4-6.3-6.9-12.2-1.9c-4.7-0.9-6.6-4.4-7.9-8.5c-1.8,2.4-3.2,5.2-7.4,6.1c0.4-2,0.7-3.4,1-5.3c-1-0.6-2.2-1.4-4-2.4
		c1.1-3.3,2.2-6.6,3.5-10.6c-1.3-0.3-2.9-1.2-3.7-0.7c-1.5,1-3,2.5-3.7,4.2c-0.9,2,0.4,5-3,6.7c-0.7-2.2-1.4-4.2-2.3-7
		c-1.2,2.1-2,3.5-2.8,4.9c-0.5-0.3-1.1-0.5-1.1-0.8c-0.1-1.9,0-3.8,0-5.3c6.9-4.5,13.3-8.3,16.6-15.8c1.7,0.5,3.3,0.9,5.1,1.5
		c0.8-2.1,1.5-3.9,2.3-5.8c1,0.1,1.8,0.1,3.1,0.2c-0.1,1,0,1.8-0.2,2.6c-0.2,0.8-0.5,1.5-1,2.9c3.3,0,5.9,0,8.6,0
		c0.1-0.4,0.1-0.8,0.2-1.1c-1.5-0.3-3-0.6-5.1-1.1c0.4-3.9,0.7-7.9,1.1-12.1c2.3-0.3,4-0.5,5.8-0.8c4.4-4.5,5.2-14,15-11.6
		c-1-4.6-1-4.6,3.4-7.4c3.8,2.2-1.6,5.9,1.4,8.2c2.9,2.2-0.1,5.5,1.2,8.1c3.1-2.2,5.8-4.2,9-6.4c1-2.1,2.3-4.6,3.7-7.4
		c-1.6-5.4,0-8.1,6.9-11.2c-1.4-1.4-2.6-2.7-4.4-4.7c2.1-1.7,3.9-3.1,6-4.7c2.6,1.6,4.5,4.8,8.2,3.2c4.1-4.7,10.3-8.3,10.6-16.2
		c-2.9,1.2-5.2,2.2-7.6,3.1c-0.3,0.1-0.8-0.3-1.6-0.6c0.2-4.1,0.9-8.4-1.6-12.5c-0.8-1.3,0.3-3.8,0.7-5.6c0.5-2.1,1.3-4.1,1.6-6.4
		c-3.1,2.7-5.2,6-6.7,9.7c-3.1,7.6-6.9,14.7-12.1,21.2c-2.3,2.9-5,4.8-8.6,6.3c-1.1-1.8-2.1-3.4-3.4-5.5c-1.1,1.4-2.1,2.6-3,3.7
		c-4.1,0.2-4.1-3.9-6.7-5.7c-4.4-0.1-9-0.5-13.3-3.7c-2.2-1.7-5.8-1.5-9.1-2.3c-0.1,4.9,5.7,5.2,7.9,9.6c-5.2-1.6-9.4-2.7-12.3-6.8
		c-4.2,2.1-8.4,4.2-13.1,6.5c-0.6-3.8,1.6-5.2,3.3-6.7c2.2-2.1,2.3-4,0.3-6.8c-4.1,1.7-9.3,1.3-12.2,5.9c0,0,0,0,0.1,0
		c0,0.1,0,0.1,0,0.2c2,1.5,1.9,1.6-0.8,3.7c0.3-1.6,0.6-2.7,0.8-3.7c0,0-0.1,0-0.1-0.1c0,0,0-0.1,0.1-0.1c-1.5-0.2-2.9-0.4-4.8-0.6
		c0.7-2.2,1.4-4,2.1-6.2c-3.7-0.4-5.6,1.8-7.6,3.6c-0.9,0.9-1.7,2.1-2.8,2.7c-1.7,0.8-3.8,0.8-4.5-1.2c-0.4-1.1,0.4-2.9,1.2-3.9
		c0.7-1,2.4-1.2,3.3-2.1c1.8-1.9,3.4-4,5-6c1.1-1.3,2.1-2.6,3.2-4c4.7,1.3,9.1,3.8,14-1c-8.2-0.6-14.9-6.9-23.8-0.7
		c3.2-8.4,11.6-8.1,16-13.9c-2.1-1.2-3.8-2.3-6.1-3.6c2-1,3.9-1.9,5.7-2.9c5.7-3.3,6.3-4.9,4.8-12.2c-4.2,0.1-7.4,5.6-13,1.7
		c-0.4-0.6-1.3-2.3-2.5-4.4c2.6-2,5.1-4,8.6-6.7c-4.3-0.5-7.5-0.8-12.4-1.4c3.7-2.5,6.1-4.2,9.2-6.2c-2-0.7-3.3-1.2-4.8-1.7
		c4.3-5.3,8.7,1.6,13.7-0.3c-0.4-1.7-0.7-3.4-1.2-5.3c-2.3,0.1-4,0.2-5.7,0.3c-2.3-6.5-8.9-1.2-12.8-4.7c0.8-1.3,1.7-2.6,2.8-4.4
		c-1.2-0.2-2.1-0.7-2.8-0.5c-3.5,1-6.9,1.3-10.1-1c4.7-5.1,10.4-8.2,16.9-8.2c1.3-2.9,2.3-5.2,3.3-7.5c-0.9-0.6-2-1.4-3.4-2.4
		c1.6-1.3,2.9-2.5,4.3-3.7c-2.1,0.3-4.2,0.6-6.3,0.9c-2.5,0.3-5.2,1.1-7.7-1.1c2.3-5.8,4.5-11.6,6.9-17.7c-3.1-3-9.9-1.8-10.4-9.1
		c0.5-0.7,1.5-2.3,2.5-4.1c-0.7-1.1-1.2-2.5-2.1-3.3c-4.6-3.8-5.7-9.4-7.1-14.5c-1.1-4.1-1.5-9.2,3.1-12.8c3,0.7,6.1,1.4,9.2,2
		c0.2-0.4,0.4-0.8,0.6-1.1c-1.5-1.3-2.9-2.6-4.4-3.9c0.3-0.3,0.6-1,0.8-0.9c5.3,0.8,10.4-0.9,15.5-0.8c6.1,0.1,12.3,0.9,18.2,2.4
		c6.6,1.6,12.9,4.3,19.3,6.5c1,0.3,2.2,0.5,3.2,0.4c5-0.6,8.7,2.2,13,4.7c-1.1,2.4-2.1,4.5-3,6.5c-5,2.2-10,2-15.1,2.1
		c-7,0.2-13.9,1.4-20.9,2.2c-0.3,0-0.5,0.7-0.8,1.2c8.2,1.2,16.2-2.4,25.9-1.6c-3.4,3.2-6.2,3.2-8.9,3.7c-4.1,0.8-8.2,1.8-12.1,3.1
		c-1.6,0.6-2.9,2.2-4.4,3.3c5.7-1.1,11.4-2.3,17.2-3.2c3.7-0.6,7.4-0.9,11.7-1.4c0.6,2.2,1.3,4,1.6,5.9c1,6.5-1.3,9-7.6,7.6
		c-4.8-1.1-9.1-0.8-13,2c0,3.7,0,7.2,0,11.2c3.9-1.1,7.4,0,11,1.9c2.3,1.3,5.5,1.2,8.4,1.3c5.8,0.3,11.3,1.3,16.4,4.4
		c2.7,1.6,5.2,3.2,6,6.6c0.3,1.3,1.8,2.4,2.8,3.5c1.7,1.8,3.7,3.2,5.1,5.2c4.6,6.7,11.6,9.8,18.7,12.8c1.1,0.4,2.6-0.2,4.1-1.4
		c-0.8-0.5-1.6-1.1-2.5-1.5c-1.3-0.7-3.1-1-3.9-2.1c-4.1-5.2-7.9-10.5-11.7-15.8c-1.3-1.8-2.5-3.7-3.9-5.3c-4-4.6-8.1-9.1-12.6-14.1
		c3.3-2.2,6.3-3.1,9.6-2.1c3.6,1.2,5.9-0.6,8.1-2.9c1.9-1.9,3.8-3.8,6.3-6.4c-0.9-4.7-2.8-10.4-0.9-16.7c1.4,0.1,2.6,0.2,3.9,0.2
		c0.9-3,0.7-6.8,5.3-7.6c2.9,1.4,6,4.1,9.2,4.1c2.4,0,4.5,0.6,6.6,1.1V190c-3.4-0.2-6.8-0.4-10.4-0.6c-0.1-2.7,2-3.5,3.7-3.7
		c2.3-0.2,4.5-0.3,6.6-0.2v-16c-0.6,0.1-1.3,0.3-1.9,0.5c-2.3,0.8-4.3-0.4-5.8-2.2c-1.5-1.9-3-3.7-4.9-6c-1.7,0.8-4.2,1-5.1,2.3
		c-2.7,3.8-6.8,3.7-10.1,3.2c-5.7-0.9-9.8,2.1-14.2,4.3c-3.3,1.6-5.9,4.5-9.6,7.4c-11.3-3.4-22.6-8.6-35.5-13.2
		c4.6,5.5,10.3,7,15.3,9.7c5.1,2.8,10.3,5.4,15.9,8.4c-2.5,1.6-4.5,0.2-6.3-0.4c-8-2.5-15.9-5.2-23.8-7.8c-0.8-0.3-1.8-0.9-2.5-0.7
		c-5.4,1.5-10.1-2.1-15.8-1.4c0.4-5.1,1.6-9,6.2-10.7c0.6-7.8,3.1-11.2,10.9-13.2c4.8-1.3,9-3.2,13-6.1c4.6-3.3,9.7-5.9,14.8-9
		c5.2-0.5,10.4-1.1,15.5-1.6c1.2-0.1,2.6-0.1,3.7,0.4c3.3,1.5,6.4,1.6,9.7-0.8c1.4,3.6,4,4.2,7.2,5c3.9,1,7.3,3.7,10.9,5.7
		c0.8,0.4,1.5,1,2.6,1.7c2-1,4.1-2.1,5.5-2.8c0.8-4.4,1.5-8,2-11.6c0.2-1.3,0.5-2.8,0.1-3.9c-1.6-5.1-0.9-10.1,0.4-15
		c1.4-5.1-0.9-9.7-0.7-15.5c-1.4,1.1-2,1.6-3.4,2.7c0.4-3.2,0.7-5.7,1-8.6c1.6,0.2,2.6,0.3,3.7,0.4c0.2-1,0.3-2.1,0.6-3.5
		c0.2,0,0.4,0,0.6,0V0H-52v600h220v-46.9c-0.9,0.8-1.9,1.7-2.9,2.6C164.1,553.8,167.2,550.8,162.6,550.4z M113,509
		c0.4,0.5,0.7,1.1,1.1,1.6c0.1,0.1,0.2,0.2,0.3,0.2c0.4,0.1,0.8,0.3,1.2,0.4c-0.4-0.1-0.8-0.2-1.2-0.3c-0.1-0.1-0.2-0.2-0.2-0.3
		c-0.5-0.4-1-0.8-1.5-1.2C112.7,509.3,112.8,509.2,113,509z M109.2,506.1l0,0.4l-0.4-0.2L109.2,506.1z M102.6,499.9
		c0.9,1.1,1.8,2.2,2.7,3.4c-0.2,0.2-0.3,0.4-0.5,0.6c-1.1-1-2.2-2-3.3-3C101.8,500.5,102.2,500.2,102.6,499.9z M100.4,496.6
		c-0.6,0.1-1.2,0.3-1.8,0.4c-0.3-1.3-0.6-2.6-1.2-4.8C101.1,493.4,101.4,494.8,100.4,496.6z M96.9,486.6c-2.7,2.7-2.7,2.7-6.5-0.4
		C93.1,486.4,94.6,486.5,96.9,486.6z M101.1,470.6c-0.2,0-0.3-0.7-0.4-1.1c0.6-0.1,1.1-0.4,1.7-0.4c0.1,0,0.3,0.7,0.5,1.3
		C102.3,470.5,101.7,470.7,101.1,470.6z M95,455.9c1.6,0.6,2.8,1.1,4.4,1.7c1-1.4,1.9-2.9,3.3-4.9c0.6,3.7,1,6.6,1.6,10.1
		c-3.1-0.7-6-1.5-9.3-2.2C95,459.2,95,457.8,95,455.9z M93.4,465.1c1.2,1.5,2.3,3,4.3,5.7C93.3,470,92.3,468.4,93.4,465.1z
		 M82.3,466.5c-0.1-0.1-0.2-0.3-0.3-0.4c0.2-0.1,0.5-0.1,0.7-0.2c0,0.2,0.1,0.3,0.1,0.5C82.6,466.4,82.4,466.5,82.3,466.5z
		 M83.1,447.9c0.7,1.5,1.4,3,2.1,4.6c-0.6,0.3-1.2,0.5-1.9,0.8c-0.5-1.6-1.1-3.2-1.6-4.8C82.2,448.2,82.6,448,83.1,447.9z
		 M77.7,404.9c0.3,0,0.6,0,0.9,0c0,0.9,0,1.9,0,2.8c-0.3,0-0.6,0-0.9,0C77.7,406.7,77.7,405.8,77.7,404.9z M64.5,368.9
		c0,0.2,0.2,0.4,0.1,0.5c-0.1,0.2-0.3,0.2-0.4,0.4c-0.1-0.3-0.2-0.5-0.2-0.8C64.2,369,64.3,368.9,64.5,368.9z M58.3,306.5
		c0.2-0.3,0.7-0.4,1-0.5c0.2,0.3,0.5,0.5,0.7,0.8c-0.5,0.3-1,0.5-1.5,0.8C58.5,307.1,58.2,306.6,58.3,306.5z M117.2,51.2
		c0.2,0.3,0.3,0.7,0.5,1c-0.3,0.2-0.6,0.7-0.8,0.6c-0.3-0.1-0.5-0.5-0.8-0.8C116.4,51.8,116.8,51.5,117.2,51.2z M79.1,509.2
		c-0.4-0.1-0.6-0.8-0.9-1.2c0.3-0.2,0.7-0.6,1-0.6c0.5,0.1,0.9,0.5,1.7,0.9C80,508.7,79.5,509.2,79.1,509.2z M79.4,528.4l-0.4-0.1
		l0.3-0.4L79.4,528.4z M80.4,500.4c-0.2,0.3-0.6,0.9-0.7,0.9c-0.5-0.2-0.8-0.5-1.3-0.8c0.3-0.2,0.6-0.7,1-0.7
		C79.8,499.7,80.1,500.1,80.4,500.4z M79,450.1c-0.9,2.7-2.2,4-5.3,5.1C73.6,450.9,76,450.7,79,450.1z M64.3,439.7
		c0.3,0.1,0.5,0.2,0.8,0.3c-0.1,0.2-0.2,0.4-0.3,0.5c-0.2-0.1-0.4-0.1-0.4-0.2C64.3,440.2,64.3,439.9,64.3,439.7z M60.6,440.3
		c0.4,0,0.7,0,1.1,0c0.9,2.1,1.8,4.2,3.3,7.5c-2.4,0.1-4,0.2-6.4,0.3C59.5,445,60,442.6,60.6,440.3z M63,462.5
		c4-0.8,8.1-1.6,12.3-2.4c0.9,1.3,1.7,2.6,3,4.6c-2.9,0.9-5.2,1.7-8.1,2.7c0.3,3.8-2,6.9-6,9.2c0.7,1.7,1.3,3,2.1,4.9
		c-1.3,0.5-2.5,1-4.1,1.6c0.5-9.2,0.1-17.6-4.5-25.3C61.6,457.5,61.6,457.5,63,462.5z M73.5,533.9c-4.6-0.2-7.9-4.1-8.5-10.2
		C70.7,528.2,71.6,529.3,73.5,533.9z M65.2,486.9c0.5-0.2,0.9-0.5,1.4-0.6c0.1,0,0.4,0.6,0.5,1c-0.4,0.1-0.7,0.3-1.1,0.4
		C65.8,487.4,65.5,487.1,65.2,486.9z M72.4,513.3c1.7-3.1,3.3-2.3,5.2-0.4C76.1,513.1,74.7,513.2,72.4,513.3z M74.3,474.7
		c0.2-0.3,0.7-0.4,1-0.6c0.2,0.3,0.5,0.5,0.7,0.8c-0.5,0.3-1,0.5-1.5,0.8C74.4,475.4,74.1,475,74.3,474.7z M52.5,443.8
		c-0.6-4.1,1.4-4.6,4.1-4.9C55.9,441.7,55.9,441.7,52.5,443.8z M53.7,488.7l-0.4-0.3c0-0.1,0-0.1,0-0.2c-2-1.2-2.8-2.8-2-5.6
		c2.4,1.6,1.8,3.8,2,5.6c0,0,0.1,0,0.1,0.1L53.7,488.7z M56.6,502.8c5.3-0.7,6.3,0.4,4.3,5.6C58.2,507,56.3,505.7,56.6,502.8z
		 M50.6,357.2c1.5,1.4,2.6,2.3,4.4,4c-2.5,0.8-4.1,1.4-5.8,2c-0.4-0.4-0.7-0.8-1.1-1.2C48.9,360.6,49.6,359.2,50.6,357.2z
		 M52.6,319.7c-0.4-0.3-0.7-0.7-1.1-1c0.6-0.7,1.2-1.4,1.7-2c0.3,0.2,0.6,0.4,0.8,0.6C53.6,318.1,53.1,318.9,52.6,319.7z
		 M42.4,291.6c1.1,0.1,2,1.6,3,2.4c-0.3,0.7-0.6,1.3-0.8,2c-2.4-0.2-4.7-0.5-7.7-0.8C38.2,292,40.3,291.3,42.4,291.6z M63.5,107.3
		c-0.1-2.5,0.6-4.1,3.1-3.8c0.7,0.1,2,1.5,1.8,2.1C67.8,108.5,65.7,108.1,63.5,107.3z M79.9,108.7c-0.5-0.4-1-0.9-1.5-1.3
		c0.5-0.8,1-1.5,1.5-2.3c0.6,0.6,1.3,1.2,1.9,1.8C81.2,107.4,80.6,108.1,79.9,108.7z M83.2,98.4c-0.3,0-0.7-0.3-1-0.5
		c0.3-0.3,0.6-0.8,1-1c0.1-0.1,0.5,0.5,0.8,0.7C83.7,98,83.5,98.4,83.2,98.4z M93,65.9c0-0.1,0-0.1,0.1-0.2c0.1-0.1,0.2-0.1,0.3-0.2
		c0.6-0.7,1.2-1.5,1.8-2.2c0.3,0.3,0.5,0.6,0.8,0.9c-0.8,0.4-1.7,0.9-2.5,1.3c-0.1,0.1-0.1,0.2-0.2,0.3C93.1,65.8,93.1,65.9,93,65.9
		c-0.4,1.4-0.8,2.9-1.5,5.7C90.5,67.7,90.5,67.6,93,65.9z M91.5,92c-3.2-1.1-6.4-2.2-10-3.5c0.4-1.6,0.8-2.9,1.1-4.3c0,0,0,0-0.1,0
		c-0.1,0-0.2-0.1-0.3-0.1c-0.7-0.1-1.4-0.1-2.1-0.2c0.1-0.2,0.1-0.4,0.2-0.7c0.6,0.3,1.3,0.6,1.9,0.9c0.1,0,0.3,0,0.4,0
		c0,0,0,0.1,0,0.1c1-0.2,2.1-0.4,3.1-0.7C92.5,88.8,92.5,88.8,91.5,92z M80.2,52.4c0.2,0.5,0.4,0.9,0.5,1.4c0,0.1-0.6,0.3-1,0.4
		c-0.1-0.4-0.2-0.7-0.4-1.1C79.6,52.9,79.9,52.6,80.2,52.4z M25.9,48c1.6-2.2,3.5-4.3,6-7.3c3.3-1.8,5.5,2.6,9.3,4.6
		c-0.8-2.1-1.3-3.5-2-5.3c3.1,0,5.4,0.4,7.6,2.2c1.8,1.4,4,2.5,6,3.8c-0.6,3.7-0.6,3.7-7.6,3.3c0.3,4,3,6.6,5.8,9.2
		c-1.4,0.6-5.3,0.8-6.7,0.5c1.8,2.5,3.2,4.6,4.7,6.6c-1.1,5.4-5.2,5.3-10.4,5.2c3.3,3.5,5.7,6.2,8.4,8.5c2.7,2.4,5.9,4.3,8.8,6.4
		c7.5-5.4,6.5-14.4,11-21c3-1,5.6-3.1,5.9-7.3c4.3,2.4,2.7,6.9,4.8,9.8c1.9,1.1,3.7,2.1,5.8,3.3c-1,2.2-1.8,4.1-3,6.8
		c-1-2.1-1.8-3.6-2.8-5.6c-2.1,0-4.4,0-6.7,0c-1.1,2.6-2,4.8-2.9,6.8c2.2,3.6,4.3,7.1,6.7,11c-1.5,1-2.7,1.8-3.9,2.6
		c0,0,0,0.1,0.1,0.1c0,0,0,0,0,0c1.4,2.3,2.9,4.5,4.5,7.1c-2.6,1.1-3.1-1.5-4.5-2.3c-1.3-0.7-3-0.6-4.6-0.9c0.5-2.5,2.9-2.8,4.6-3.9
		c0,0,0-0.1-0.1-0.1c0,0,0,0,0.1,0C70,90.7,68.9,89.4,69,88c0.1-3.7-2.5-4.7-5.3-6.2c-2,2.5-3.8,4.9-5.8,7.4
		c0.3,1.4,0.7,2.9,1.1,4.4c1.3,5,1.3,5-2.6,8.1c-2.3,1.8-4.1,3.9-3.9,7.2c0.1,1.3-0.7,2.7-1.2,4.5c-5.4-2-9.9-4-10.2-10.5
		c1.7-1,3.3-2,3.9-2.3c1.3-4,2.3-6.9,3.5-10.4c-3.4-2.7-11.3-2.4-9.2-9.6c-4.1-2.9-7.6-5.4-10.9-7.7c-0.6-2.5-1.2-4.5-1.6-6.6
		c-0.8-4.9-1.7-9.8-2.2-14.7C24.4,50.4,25.1,49,25.9,48z M31.3,293.7c-0.3,0.3-0.7,0.8-0.7,0.8c-0.4-0.2-0.7-0.6-1.1-0.9
		c0.3-0.2,0.7-0.5,1-0.5C30.8,293,31.1,293.4,31.3,293.7z M33,308.8c6.8,3.5,13.8,1.6,21.4,1.6c-2.3,4.6-6,6.9-10.3,8.2
		c-2.3,0.7-3,0-5.1-3.2c-1.6,1-3.2,1.9-5,3c-0.6-1.1-1.1-1.9-1.6-2.9c-0.6,0.2-1.3,0.2-1.7,0.6c-2.4,2.8-5.1,4.8-10,3.1
		C24.4,314.5,28.5,311.4,33,308.8z M34.1,337.6c-0.3,0-0.6,0.1-1,0c0,0,0-0.3-0.1-0.5c0.3,0,0.6-0.1,1,0
		C34,337.1,34,337.4,34.1,337.6z M24.4,431.6c-0.3,0.7-0.8,1.2-1.2,1.8c-0.4-0.4-1.1-0.8-1.2-1.2c-0.1-0.4,0.5-1,0.9-1.7
		C23.5,431,24.4,431.5,24.4,431.6z M21.1,448.9c4.1-1.3,6.2-5.1,9.8-6.8c0,0,0-0.1,0-0.1c0,0,0.1,0,0.1,0c1-4,4-5.4,7.7-5.9
		c3.8-0.5,7.5-1,11.5-1.5c1.4-2.1,2.8-4.2,4.3-6.5c2.7,0.5,3,2.3,2.6,4.4c-0.4,2.3-1.6,4-4.1,4.5c-3,0.6-6,2-8.8,1.6
		c-3.3-0.5-5.3,1.7-8,2.1c-0.4,0.9-0.7,1.8-1.2,3c-1.6-0.7-2.9-1.2-4.1-1.7c0,0,0,0,0,0c0,0-0.1,0-0.1,0c0.4,1.6,0.7,3.3,1.1,4.7
		c-2,2.4-3.8,4.5-5.7,6.7c-0.4-0.7-0.9-1.5-1.5-2.7c-1.4,1-2.9,1.9-4.2,2.8C18.4,451.4,19.8,449.4,21.1,448.9z M42.1,475.4
		c-2-4.3-2.6-8,0.5-11.6c1.5-1.7,3-2.4,5.5-0.1C46.1,467.6,44.2,471.2,42.1,475.4z M46,496.1c0,0.2-0.1,0.4-0.1,0.6
		c-0.3,0-0.6-0.1-0.9-0.1c0-0.2,0.1-0.5,0.1-0.5C45.4,496,45.7,496.1,46,496.1z M50,467.7c0.8,3.6,1.7,6.3-1.8,8.1
		C47.9,473.1,47.7,470.6,50,467.7z M38.6,449.1c0,0.1-0.7,0.1-1.9,0.3c0.9-1.1,1.4-1.7,1.9-2.3C38.6,447.7,38.7,448.4,38.6,449.1z
		 M27.1,462.5c0.9-5.4,4.6-6.4,9-8C34.3,459.2,31,460.6,27.1,462.5z M35.9,465.4c-0.3,0.2-0.5,0.5-0.8,0.7c-0.2-0.5-0.4-0.9-0.5-1.4
		c0.3-0.1,0.7-0.2,1-0.3C35.7,464.7,35.8,465,35.9,465.4z M23.8,484.3l-0.2,0.3l-0.1-0.4L23.8,484.3z M21.9,481.5l-0.3,0.4l-0.1-0.1
		L21.9,481.5z M18.2,299.4c0.3,0,0.6,0.4,1,0.6c-0.2,0.3-0.6,0.9-0.7,0.9c-0.5-0.2-0.8-0.5-1.2-0.8
		C17.5,299.8,17.8,299.4,18.2,299.4z M19.3,435.8c1.4,3.5-1,4.4-3,5.4C15.9,438.6,16.6,436.8,19.3,435.8z M3,481.9
		c0,0,0-0.1,0.1-0.1c0,0,0.1,0,0.1,0c-0.1-4.3,3.2-4.4,6.3-5.1c-1.9,4.9-1.9,5-6.3,5.1c0,0,0,0.1,0,0.1C3.1,481.9,3,481.9,3,481.9
		c-0.6,1.1-1.2,2.3-2.1,3.9C-0.4,481.9-0.5,481.9,3,481.9z M-0.1,496.8c2.8,0.4,5.6,0.9,9.1,1.4c-1.4,2.4-4.6,4-0.8,6.9
		C0.9,505.7,1.9,500.3-0.1,496.8z M5.4,515.7c-0.1-0.4,0.6-0.9,1-1.6c0.5,0.7,1.1,1.2,1.2,1.7c0,0.4-0.7,0.8-1.1,1.2
		C6.1,516.6,5.4,516.2,5.4,515.7z M8.4,543.3c-0.6-0.5-1.1-0.9-1.7-1.4c0.4-0.4,0.8-1.1,1.3-1.2c0.4-0.1,0.9,0.5,1.6,1
		C9.1,542.4,8.7,542.9,8.4,543.3z M7.2,525.4c0,0,0,0.1-0.1,0.1l-0.4,0.3l0.3-0.4C7.1,525.4,7.1,525.4,7.2,525.4
		c0.8-1.5,1.5-3.1,2.3-4.6C10.5,523.5,9.4,524.8,7.2,525.4z M9.1,493.2c-0.2,0.1-0.9-0.5-1.8-1.1c0.8-0.7,1.3-1.4,2-1.6
		c0.2-0.1,1.2,0.9,1.2,1C10.1,492.2,9.7,492.8,9.1,493.2z M15.6,473.5c-0.2,0.1-0.7-0.4-1-0.6c0.3-0.5,0.6-0.9,0.9-1.4
		c0.6,0.4,0.9,0.6,1.3,0.8C16.3,472.7,16,473.2,15.6,473.5z M15.2,461.3c1.6-2.4,2.6-4.2,5.7-4.5C19.6,459.5,18.4,461,15.2,461.3z
		 M81,557c-2.5-0.7-4.7-1.3-7.4-2c-0.9,1.4-1.9,2.8-2.9,4.3c-3.7,1.5-7.2,0.4-10.8-0.9c-3.4-1.3-6.9-2.4-10.5-3.7
		c0.1-0.5,0.4-1.5,0.8-3.1c-1.6,0.4-3,0.7-4.2,1.1c-2.2-1.3-2-2.5,1.5-6.8c-0.8-1.1-1.6-2.3-2.4-3.4c1.5-5.2-0.9-9.9-2.6-14.7
		c-0.4,3.2-0.9,6.3-1.3,9.8c-1.4,0.4-2.9,0.7-4.2,1.1c-1.5,1.9-0.9,4.6,1.8,8c0,0,0.1,0,0.1,0c0.3-1.1,0.6-2.2,1.2-4.5
		c1.3,2.2,1.9,3.2,3.1,5.3c-2.1-0.4-3.2-0.7-4.3-0.9c0,0,0,0.1,0,0.1l-0.1-0.1c0,1.7,0,3.5,0,5.7c-1.4-0.3-2.1-0.6-2.9-0.6
		c-2.5-0.1-5.6,2.3-7.4-0.2c-2.2-3.1-3.7-6.9-5-10.6c-0.6-1.7-0.1-3.9-0.1-6.1c1-0.4,1.9-0.9,2.3-1.1c0.3-3,0.5-5.6,0.8-8.9
		c-1.7,1.6-3,2.9-4.3,4.2c-5.7-7-1.3-19.5,3.4-29.1c2.4-0.3,5.2-0.6,7.8-0.9c2.3,4.1,4.3,7.7,6.4,11.3c4.5-1.9,4.7-2.2,3.6-5.5
		c-0.6-1.8-2.3-3.5,0.6-5.3c2.3,3.2,2,7.1,3.2,10.5c1.1,3.3,2.2,6.5,3.5,10.3c0.3-3.3,0.6-6.3,0.9-9.6c1.5-1.6,3.5-1.3,4.5,0.8
		c1.7,3.5,3.3,7.3,4,11.1c0.5,2.7,0.4,5.2,3.4,6.5c-0.7,1.3-1.2,2.3-1.9,3.6c-1.4-0.9-2.6-1.7-4-2.6c-1.5,2.3-3.4,4.2-3.2,7.9
		c2.1-1.1,3.6-1.8,4.7-2.4c3.1,1.2,6.2,2.2,9,3.6c2.3,1.2,4.6,2.7,6.2,4.7c1.8,2.1,2.5,4.8,5.5,6.2C81.9,551.1,82.1,554.1,81,557z
		 M107.8,554.2l-0.3-0.2l0.4-0.1L107.8,554.2z"/>
	<path class="st0" d="M115.9,532.3c-0.4-4.1-0.4-4.1-4.2-4.1C111.8,530.9,112.6,532.8,115.9,532.3z"/>
	<path class="st0" d="M119.2,525.4c0.2,0.7,0.5,1.4,0.8,2.2c0.8-0.4,1.1-0.5,1.5-0.7c-0.4-0.7-0.8-1.4-1.3-2
		C120.1,524.9,119.2,525.3,119.2,525.4z"/>
	<path class="st0" d="M86,434.9c-0.2,1-0.5,1.9-0.7,2.9c0.6-0.8,1.3-1.6,1.9-2.4C86.9,435.2,86.4,435.1,86,434.9z"/>
	<path class="st0" d="M89.5,154.7c-2.2-0.4-4.2-0.2-5.2,3.1c2.3,0.5,4.3,0.9,6.4,1.3C91.9,156.3,91.3,155,89.5,154.7z"/>
	<path class="st0" d="M59.4,242.1c-0.6,0.4-1.2,0.7-1.8,1.1c0.7-0.1,1.4-0.2,2.1-0.3C59.6,242.6,59.5,242.3,59.4,242.1z"/>
	<path class="st0" d="M122.7,145c-0.5,4.2-0.5,4.2,2,6.6C127.2,148.8,125.4,147.3,122.7,145z"/>
	<path class="st0" d="M28,521.2c-0.1,0.3-0.1,0.6-0.2,0.9c0.2,0,0.4,0,0.6,0c0-0.2,0.2-0.4,0.1-0.6C28.4,521.4,28.1,521.3,28,521.2z
		"/>
	<path class="st0" d="M34.2,514.9c0-0.1-0.3-0.2-0.4-0.3c-0.1,0.3-0.2,0.6-0.3,0.9c0.2,0,0.4,0,0.5-0.1
		C34.1,515.3,34.2,515.1,34.2,514.9z"/>
	<path class="st0" d="M33.3,534c0.4,0,0.8,0.1,1.2,0.1c-0.3-0.4-0.5-0.9-1-1.7C33.4,533.3,33.4,533.7,33.3,534z"/>
	<path class="st0" d="M142.1,155.9c0.4,0.3,0.8,0.6,1.3,0.7c0.1,0,0.4-0.6,0.6-0.9c-0.3-0.2-0.7-0.6-1-0.5
		C142.7,155.2,142.4,155.7,142.1,155.9z"/>
	<path class="st0" d="M71.5,211.8C71.5,211.8,71.5,211.8,71.5,211.8C71.5,211.8,71.5,211.8,71.5,211.8z"/>
	<path class="st0" d="M71.5,211.7C71.4,211.7,71.4,211.7,71.5,211.7L71.5,211.7z"/>
	<path class="st0" d="M168,471C168,471,168,471,168,471l0-3.6c-0.9-0.1-1.7-0.2-2.6-0.3C164.5,469.6,165.5,470.9,168,471z"/>
	<path class="st0" d="M76.3,164.1c0.1,0.2,0.1,0.5,0.2,0.7c0.2-0.1,0.4-0.1,0.6-0.2c0-0.2,0-0.4-0.1-0.5
		C76.8,164.1,76.5,164.1,76.3,164.1z"/>
	<path class="st0" d="M75.1,222.5c0.4-0.4,1.1-0.8,1.1-1.1c0-0.5-0.7-0.9-1.2-1.6c-0.5,0.6-1.1,1.1-1,1.5
		C74.1,221.7,74.7,222,75.1,222.5z"/>
	<path class="st0" d="M70.4,322.7c2.1,1.1,3.4,2.5,4.6,2.3c4.9-0.7,9.8-1.8,14.6-2.8c0.6-0.1,1.1-0.7,1.7-1.1
		C87,318.4,76.5,319,70.4,322.7z"/>
	<path class="st0" d="M77.5,235.9c-1.9,0-3.8,0-5.7,0c0,0.5,0,0.9,0,1.4C73.6,238.1,75.5,238.5,77.5,235.9z"/>
	<path class="st0" d="M64.8,319.9c0,0.2,0,0.5,0.1,0.5c0.3,0,0.7,0,1,0c0-0.2,0-0.5-0.1-0.5C65.5,319.8,65.1,319.8,64.8,319.9z"/>
	<path class="st0" d="M81,313.7c0.1-1-0.2-2.1-0.4-4.1c-2.1,2.3-2.1,3.8-0.8,5.9C80.4,314.7,80.9,314.2,81,313.7z"/>
	<path class="st0" d="M97.9,348.8c-0.1,0.2,0.7,1.1,1,1c0.5,0,0.9-0.6,1.6-1.1c-0.6-0.5-1.1-1.1-1.4-1.1
		C98.6,347.8,98,348.3,97.9,348.8z"/>
	<path class="st0" d="M113.8,339.2c-1.8,1.5-3.2,3.4-2.7,8c2.5-1.8,4.7-2.7,5.6-4.2C117.4,341.5,116.5,339.6,113.8,339.2z"/>
	<path class="st0" d="M113,473.9c0.2,0.1,0.4,0.2,0.5,0.1c0.1-0.1,0.1-0.3,0.2-0.5c-0.1-0.1-0.2-0.2-0.4-0.4
		C113.2,473.4,113.1,473.7,113,473.9z"/>
	<path class="st0" d="M106.3,342.7c-0.3,0.8-0.6,1.7-0.9,2.5c0.4,0.1,0.7,0.2,1.1,0.3c0.3-0.9,0.6-1.7,0.8-2.6
		C106.9,342.9,106.3,342.7,106.3,342.7z"/>
	<path class="st0" d="M55.3,550.8c-0.1,0.2-0.2,0.4-0.3,0.5c0.2,0.1,0.5,0.2,0.7,0.3c0-0.2,0-0.4,0-0.6
		C55.6,551,55.5,550.9,55.3,550.8z"/>
	<path class="st0" d="M166.5,522.4c-4.9,0-6.9,0.9-7.9,4c-0.3,1.1,0.1,2.4,0.2,4c2.3-0.7,4.1-1.2,5.8-1.7c1.3,1.4,2.3,2.6,3.4,3.8
		v-4.4C167.5,526.2,167,524.3,166.5,522.4z"/>
	<path class="st0" d="M43.6,514.5c-0.5,0.6-1,1.1-1.4,1.7c-0.1,0.1,0.8,0.7,1.4,1.3c0.5-0.7,1.1-1.2,1.1-1.6
		C44.7,515.4,44,515,43.6,514.5z"/>
	<path class="st0" d="M165.1,491.9c0.1,3.6,0.2,7.2,2.9,9.3V485c-2.8,2.5-6.2,3.3-9.2,5C160.4,493.6,160.4,493.6,165.1,491.9z"/>
	<path class="st0" d="M140,231.2c0,4.8,0,9.2,0,14.7c3.9-3,6.9-1.3,10.7,1.3c0.1-2.7,0.8-4.6,0.1-5.8
		C148.1,237.3,145.7,232.7,140,231.2z"/>
	<path class="st0" d="M159.8,499.3c-4.8,3.9-4.8,3.9-4.9,9.8c-3.3,2.1-7,4.4-11.3,7.1c4.7,2.4,8.2-0.7,12-0.4c0.8-2,1.5-3.8,2.1-5.4
		c5.4-1.1,2.1,3.9,4.7,5.5c1.7-1.3,3.5-3.1,5.5-4.3c0,0,0,0,0,0v-6.3c-0.6-0.1-1.1-0.5-1.7-0.9C164.1,502.6,161.9,500.9,159.8,499.3
		z"/>
	<path class="st1" d="M61.4,351.9C61.4,351.9,61.4,351.9,61.4,351.9c-0.1,0-0.1,0.1-0.1,0.1L61.4,351.9z"/>
	<path class="st1" d="M161.4,185.7c-1.8,0.2-3.9,1-3.7,3.7c3.6,0.2,7,0.5,10.4,0.6v-4.5C165.8,185.4,163.6,185.5,161.4,185.7z"/>
	<path class="st1" d="M71.7,211.6L71.7,211.6L71.7,211.6c0.1,0,0.2-0.1,0.4-0.1c0.1,0,0.1-0.1,0.2-0.2c-0.1,0-0.2,0-0.3,0.1
		C71.8,211.5,71.8,211.6,71.7,211.6z"/>
	<path class="st1" d="M111.8,528.2c0,0,0-0.1,0-0.1c0,0-0.1,0-0.1,0c0,0,0,0.1,0,0.1C111.7,528.2,111.7,528.2,111.8,528.2z"/>
	<path class="st1" d="M85.3,437.8c-0.1,0.1-0.1,0.2-0.2,0.2c0,0.1,0,0.1,0.1,0.2c0,0,0,0,0.1-0.1C85.3,438,85.3,437.9,85.3,437.8z"
		/>
	<path class="st1" d="M57.7,243.2c-0.1,0-0.2,0-0.4,0.1c-0.1,0-0.1,0.1-0.2,0.1c0.1,0,0.2,0,0.3,0C57.5,243.3,57.6,243.2,57.7,243.2
		z"/>
	<path class="st1" d="M71.5,211.7c0,0,0.1,0,0.2,0l0,0C71.6,211.6,71.6,211.7,71.5,211.7z"/>
	<circle class="st1" cx="71.7" cy="211.6" r="0"/>
	<path class="st1" d="M71.5,211.8C71.4,211.8,71.4,211.8,71.5,211.8L71.5,211.8z"/>
	<polygon class="st1" points="94.2,333.7 94.5,333.4 94.8,333.1 94.4,333.4 	"/>
	<path class="st1" d="M71.5,211.8c0,0,0.1-0.1,0.2-0.1l0,0C71.6,211.7,71.5,211.7,71.5,211.8z"/>
	<path class="st1" d="M114.3,430.1C114.3,430.1,114.3,430.1,114.3,430.1C114.3,430.1,114.4,430.1,114.3,430.1c0.1,0,0.1,0,0.1-0.1
		C114.4,430,114.3,430.1,114.3,430.1z"/>
	<path class="st1" d="M160.6,344.3C160.6,344.3,160.6,344.3,160.6,344.3C160.6,344.3,160.5,344.3,160.6,344.3
		C160.5,344.3,160.6,344.3,160.6,344.3z"/>
	<path class="st1" d="M143.8,490.8l-0.3,0.2c0,0.1,0,0.1,0,0.2c0,0,0.1-0.1,0.1-0.1L143.8,490.8z"/>
	<path class="st1" d="M168,471c-2.4-0.2-3.5-1.5-2.6-4c0.9,0.1,1.8,0.2,2.6,0.3V245v-46.6c-2.1-0.4-4.3-1.1-6.6-1.1
		c-3.1,0-6.2-2.7-9.2-4.1c-4.5,0.8-4.4,4.6-5.3,7.6c-1.4-0.1-2.6-0.2-3.9-0.2c-1.9,6.2,0,12,0.9,16.7c-2.5,2.5-4.5,4.4-6.3,6.4
		c-2.2,2.3-4.5,4.1-8.1,2.9c-3.3-1.1-6.3-0.1-9.6,2.1c4.5,5,8.6,9.5,12.6,14.1c1.4,1.7,2.6,3.5,3.9,5.3c3.9,5.3,7.7,10.7,11.7,15.8
		c0.8,1.1,2.6,1.4,3.9,2.1c0.9,0.5,1.7,1,2.5,1.5c-1.5,1.3-3.1,1.9-4.1,1.4c-7.1-2.9-14.1-6.1-18.7-12.8c-1.4-2-3.4-3.4-5.1-5.2
		c-1-1.1-2.5-2.2-2.8-3.5c-0.8-3.4-3.2-5-6-6.6c-5.1-3-10.6-4.1-16.4-4.4c-2.8-0.1-6,0-8.4-1.3c-3.6-1.9-7.1-3-11-1.9
		c0-4,0-7.5,0-11.2c3.9-2.8,8.2-3.1,13-2c6.2,1.4,8.6-1.1,7.6-7.6c-0.3-1.8-1-3.6-1.6-5.9c-4.4,0.5-8.1,0.8-11.7,1.4
		c-5.7,1-11.4,2.1-17.2,3.2c-0.1,0-0.1,0.1-0.2,0.2c-0.1,0-0.3,0.1-0.4,0.1c-0.1,0.1-0.1,0.1-0.2,0.1c0,0,0,0,0,0c0,0,0,0,0,0
		c0,0,0,0,0,0c0,0,0.1-0.1,0.2-0.1c-0.1,0-0.1,0-0.2,0c-0.2,0-0.1,0,0,0c0,0,0.1,0,0.2,0c0.1-0.1,0.2-0.1,0.3-0.2
		c0.1,0,0.2,0,0.3-0.1c1.4-1.2,2.7-2.8,4.4-3.3c3.9-1.3,8-2.3,12.1-3.1c2.7-0.5,5.5-0.6,8.9-3.7c-9.6-0.8-17.6,2.8-25.9,1.6
		c0.4-0.5,0.6-1.2,0.8-1.2c7-0.8,13.9-1.9,20.9-2.2c5.1-0.2,10.1,0,15.1-2.1c0.9-2,1.9-4.1,3-6.5c-4.3-2.5-8-5.3-13-4.7
		c-1.1,0.1-2.2-0.1-3.2-0.4c-6.4-2.2-12.7-4.9-19.3-6.5c-5.9-1.4-12.1-2.3-18.2-2.4c-5.1,0-10.3,1.6-15.5,0.8
		c-0.2,0-0.5,0.6-0.8,0.9c1.4,1.3,2.9,2.6,4.4,3.9c-0.2,0.4-0.4,0.8-0.6,1.1c-3.1-0.7-6.2-1.4-9.2-2c-4.6,3.6-4.2,8.8-3.1,12.8
		c1.4,5.1,2.5,10.8,7.1,14.5c1,0.8,1.4,2.2,2.1,3.3c-1.1,1.7-2.1,3.3-2.5,4.1c0.6,7.3,7.4,6.1,10.4,9.1c-2.4,6.1-4.7,11.9-6.9,17.7
		c2.5,2.2,5.1,1.4,7.7,1.1c2.1-0.2,4.2-0.6,6.3-0.9c0.1,0,0.1-0.1,0.2-0.1c0.1,0,0.2,0,0.4-0.1c0.6-0.4,1.2-0.7,1.8-1.1
		c0.1,0.2,0.2,0.5,0.3,0.7c-0.7,0.1-1.4,0.2-2.1,0.3c-0.1,0.1-0.2,0.1-0.3,0.2c-0.1,0-0.2,0-0.3,0c-1.4,1.2-2.7,2.4-4.3,3.7
		c1.5,1,2.5,1.7,3.4,2.4c-1,2.3-2,4.6-3.3,7.5c-6.5,0-12.2,3-16.9,8.2c3.2,2.4,6.6,2,10.1,1c0.7-0.2,1.6,0.3,2.8,0.5
		c-1.1,1.7-2,3.1-2.8,4.4c3.9,3.5,10.4-1.8,12.8,4.7c1.7-0.1,3.4-0.2,5.7-0.3c0.4,1.9,0.8,3.6,1.2,5.3c-5,1.8-9.3-5-13.7,0.3
		c1.5,0.5,2.8,1,4.8,1.7c-3,2.1-5.5,3.7-9.2,6.2c4.9,0.5,8.1,0.9,12.4,1.4c-3.5,2.7-6,4.7-8.6,6.7c1.2,2.1,2.2,3.7,2.5,4.4
		c5.6,3.9,8.8-1.5,13-1.7c1.5,7.3,0.9,8.9-4.8,12.2c-1.8,1-3.6,1.9-5.7,2.9c2.3,1.4,4,2.4,6.1,3.6c-4.4,5.8-12.8,5.5-16,13.9
		c8.9-6.2,15.6,0,23.8,0.7c-4.9,4.8-9.3,2.3-14,1c-1.1,1.4-2.1,2.7-3.2,4c-1.6,2-3.2,4.1-5,6c-0.9,0.9-2.6,1.1-3.3,2.1
		c-0.8,1.1-1.6,2.9-1.2,3.9c0.7,2,2.8,2,4.5,1.2c1.1-0.5,1.9-1.8,2.8-2.7c2-1.9,3.8-4,7.6-3.6c-0.8,2.3-1.4,4.1-2.1,6.2
		c1.9,0.2,3.3,0.4,4.8,0.6c2.9-4.6,8.1-4.2,12.2-5.9c2,2.7,1.9,4.7-0.3,6.8c-1.6,1.5-3.9,2.9-3.3,6.7c4.7-2.3,8.9-4.4,13.1-6.5
		c2.9,4.1,7.2,5.2,12.3,6.8c-2.2-4.4-8-4.7-7.9-9.6c3.4,0.8,7,0.6,9.1,2.3c4.2,3.2,8.8,3.6,13.3,3.7c2.6,1.8,2.6,5.9,6.7,5.7
		c0.9-1.1,1.9-2.3,3-3.7c1.3,2.1,2.3,3.7,3.4,5.5c3.6-1.4,6.3-3.4,8.6-6.3c5.2-6.4,8.9-13.6,12.1-21.2c1.5-3.7,3.6-7,6.7-9.7
		c-0.2,2.3-1.1,4.3-1.6,6.4c-0.5,1.9-1.5,4.4-0.7,5.6c2.5,4.1,1.9,8.4,1.6,12.5c0.8,0.3,1.3,0.7,1.6,0.6c2.4-0.9,4.7-1.9,7.6-3.1
		c-0.3,7.9-6.5,11.5-10.6,16.2c-3.7,1.6-5.6-1.6-8.2-3.2c-2.1,1.6-3.9,3-6,4.7c1.8,1.9,3.1,3.2,4.4,4.7c-6.9,3.1-8.5,5.8-6.9,11.2
		c-1.4,2.7-2.6,5.3-3.7,7.4c-3.1,2.2-5.9,4.2-9,6.4c-1.3-2.6,1.6-5.9-1.2-8.1c-3-2.3,2.5-6-1.4-8.2c-4.4,2.9-4.4,2.9-3.4,7.4
		c-9.9-2.4-10.6,7.1-15,11.6c-1.8,0.2-3.5,0.5-5.8,0.8c-0.4,4.2-0.8,8.2-1.1,12.1c2.2,0.4,3.7,0.8,5.1,1.1c-0.1,0.4-0.1,0.8-0.2,1.1
		c-2.7,0-5.3,0-8.6,0c0.5-1.4,0.8-2.1,1-2.9c0.2-0.8,0.1-1.6,0.2-2.6c-1.2-0.1-2.1-0.1-3.1-0.2c-0.7,1.9-1.4,3.7-2.3,5.8
		c-1.8-0.5-3.4-1-5.1-1.5c-3.2,7.5-9.7,11.3-16.6,15.8c0,1.5,0,3.4,0,5.3c0,0.2,0.6,0.4,1.1,0.8c0.8-1.4,1.6-2.9,2.8-4.9
		c0.9,2.8,1.6,4.8,2.3,7c3.4-1.8,2.1-4.7,3-6.7c0.8-1.7,2.2-3.2,3.7-4.2c0.8-0.5,2.5,0.5,3.7,0.7c-1.3,4-2.4,7.3-3.5,10.6
		c1.8,1.1,3,1.8,4,2.4c-0.4,1.8-0.7,3.3-1,5.3c4.2-0.9,5.6-3.7,7.4-6.1c0-0.1,0-0.1-0.1-0.2c0.1-0.1,0.1-0.2,0.2-0.2
		c0.2-1,0.5-1.9,0.7-2.9c0.4,0.2,0.8,0.4,1.2,0.5c-0.6,0.8-1.3,1.6-1.9,2.4c0,0.1-0.1,0.2-0.1,0.3c0,0,0,0-0.1,0.1
		c1.3,4,3.2,7.6,7.9,8.5c6-4.9,8.5-4.5,12.2,1.9c0.8,1.3,1.7,2.7,2.9,3.4c2.9,1.8,3.8,4.1,2.5,7c2.7,1.8,6.7,1.2,7.6,5.7
		c-2.1-0.4-3.6-0.6-5.4-0.9c-0.6,1.3-1.1,2.3-1.4,3.3c-1.4,5-4.1,7.9-9.7,8.2c-1.9,0.1-3.8,1.9-5.9,3.1c-0.7-0.9-1.4-2.1-2.4-2.9
		c-2.8-2.5-7.9-2.2-10.5,0.7c-0.3,0.3,0.1,1.1,0.1,2c1.6-0.9,2.9-1.6,4-2.3c0.6,0.4,1.1,0.5,1.4,0.8c6.5,6.3,9,6.4,16.8,1.4
		c1.1-0.7,2.7-0.7,4.1-1c0.9,2.3-0.5,5.1,2.6,6c0.6,0.2,1.2,1.3,1.3,2c0.3,3.4,0.5,6.8,0.7,10.3c-2.7,0.7-4.7,1.2-7.5,1.9
		c1.5,1.7,2.2,3.3,3.4,3.8c2.8,1.1,4.7,2.9,6.3,5.5c2,3.4,3.2,3.6,7.1,2.2c1-0.3,1.9-0.9,3-1.4c1,1.6,2,2.8,2.5,4.2
		c0.5,1.3,1,3.6,0.4,4.1c-1.2,0.9-3.6,1.8-4.6,1.2c-4-2.3-7.6-0.7-11.1,0.4c-2-1.6-3.5-3.2-5.4-4.2c-0.5-0.3-1.8,1-2.8,1.6
		c-0.3,0.6-0.6,1.2-0.9,1.8c1.8,0.8,3.6,1.5,5.1,2.1c-1.5,1.9-2.2,2.9-3,3.9c1.7,2.2,5.6,2.1,5,5.7c0,0,0.1,0,0.1,0c0,0,0,0.1,0,0.1
		c3.7,0,3.7,0,4.2,4.1c-3.3,0.5-4.1-1.4-4.2-4.1c0,0-0.1,0-0.1,0c0,0,0-0.1,0-0.1c-3,0.2-6,0.5-9.4,0.8c-1.1-2.3-2.2-4.7-3.4-7
		c-1.3-2.3-2.8-4.5-4.5-7.1c2.8-0.6,4.7-1,7.1-1.6c-3.4-2.3-6-4.1-8.6-5.8c-0.7-0.4-1.7-0.3-2.6-0.2c-0.5,0.1-1,0.6-1.8,1.2
		c1.1,1.8,2.1,3.4,3,4.8c-0.9,2.8-1.7,5.2-2.5,7.9c-4.8,0.2-6.4,3-6.6,7.4c-0.3,6.7-2.1,13.5,1.9,19.8c0.2,0.3,0.4,0.6,0.6,0.8
		c0.9-0.8,1.7-1.5,2.7-2.4c4.6,3.6,9.4,3.3,14.3,0.4c-0.5,5-1.3,6-4.7,5.5c-3.6-0.5-7.1-1-11,0.7c3.1,3,6.1,2.9,9.5,2.6
		c7.2-0.6,7.2-0.3,9.8-7.1c0.4-1.1,1.3-2,2.5-3.8c1.1,1.9,2.1,3,2.5,4.3c1.8,6.7,2,6.9,9.1,5.7c3.6-0.6,7.5,1.2,11-0.9
		c0.3-0.2,1.2,0.4,1.8,0.6c3.5,1.3,7.1,2.2,10.3,3.9c6.5,3.4,11.4,0.8,16-3.7c1.5-1.5,3-3.1,4.1-4.4c4.6,0.4,1.5,3.4,2.6,5.3
		c1-0.9,1.9-1.8,2.9-2.6v-20.6c-1.1-1.2-2.1-2.4-3.4-3.8c-1.7,0.5-3.5,1-5.8,1.7c-0.1-1.7-0.5-3-0.2-4c1-3.1,3-4.1,7.9-4
		c0.5,1.9,1,3.8,1.5,5.8v-16.6c0,0,0,0,0,0c-2.1,1.2-3.9,2.9-5.5,4.3c-2.6-1.5,0.7-6.6-4.7-5.5c-0.6,1.6-1.3,3.4-2.1,5.4
		c-3.9-0.3-7.4,2.7-12,0.4c4.3-2.7,8-5,11.3-7.1c0.1-5.9,0.1-5.9,4.9-9.8c2.1,1.6,4.3,3.4,6.5,5.1c0.6,0.4,1.1,0.8,1.7,0.9v-4.1
		c-2.6-2.1-2.8-5.7-2.9-9.3c-4.8,1.8-4.8,1.8-6.3-1.9c3-1.7,6.4-2.4,9.2-5L168,471C168,471,168,471,168,471z M150.7,247.2
		c-3.8-2.6-6.8-4.3-10.7-1.3c0-5.5,0-10,0-14.7c5.7,1.5,8.2,6.1,10.8,10.3C151.5,242.6,150.8,244.5,150.7,247.2z M64.9,320.4
		c0,0-0.1-0.4-0.1-0.5c0.3,0,0.7-0.1,1,0c0,0,0,0.4,0.1,0.5C65.5,320.4,65.2,320.4,64.9,320.4z M80.5,309.6c0.2,2,0.5,3.1,0.4,4.1
		c0,0.5-0.6,1-1.2,1.8C78.4,313.4,78.4,311.9,80.5,309.6z M75,219.7c0.6,0.7,1.2,1.1,1.2,1.6c0,0.4-0.7,0.8-1.1,1.1
		c-0.4-0.4-1-0.8-1.1-1.3C73.9,220.8,74.6,220.3,75,219.7z M71.8,235.9c1.9,0,3.8,0,5.7,0c-2,2.6-3.9,2.2-5.7,1.4
		C71.8,236.8,71.8,236.3,71.8,235.9z M89.5,322.2c-4.9,1-9.7,2.1-14.6,2.8c-1.1,0.2-2.5-1.2-4.6-2.3c6.1-3.6,16.6-4.3,20.9-1.6
		C90.6,321.5,90.1,322.1,89.5,322.2z M94.5,333.4l-0.3,0.2L94.5,333.4l0.3-0.4L94.5,333.4z M98.9,349.9c-0.3,0-1.1-0.8-1-1
		c0.2-0.5,0.7-1.1,1.2-1.2c0.3-0.1,0.8,0.6,1.4,1.1C99.8,349.2,99.4,349.8,98.9,349.9z M106.5,345.6c-0.4-0.1-0.7-0.2-1.1-0.3
		c0.3-0.8,0.5-1.7,0.9-2.5c0,0,0.7,0.2,1,0.3C107,343.9,106.7,344.7,106.5,345.6z M116.6,343c-0.9,1.5-3,2.4-5.6,4.2
		c-0.5-4.7,0.9-6.5,2.7-8C116.5,339.6,117.4,341.5,116.6,343z M113.5,474c-0.1,0.1-0.3-0.1-0.5-0.1c0.1-0.2,0.2-0.5,0.3-0.7
		c0.1,0.1,0.3,0.2,0.4,0.4C113.6,473.7,113.6,474,113.5,474z M120,527.6c-0.3-0.7-0.6-1.4-0.8-2.2c0-0.1,0.9-0.5,1-0.5
		c0.5,0.6,0.9,1.3,1.3,2C121.1,527.1,120.8,527.3,120,527.6z M131.4,507.5c0.1,0,0.4,0.6,0.6,0.9c-0.3,0.2-0.7,0.3-1,0.5
		c-0.3-0.3-0.6-0.5-0.9-0.8C130.6,507.9,131,507.6,131.4,507.5z M129,393.8c0.1,0.1,0.3,0.2,0.4,0.3c-0.2,0.2-0.4,0.5-0.6,0.7
		c0,0-0.3-0.2-0.4-0.3C128.6,394.3,128.8,394,129,393.8z M121.4,401.4c0.6,0.6,1.2,1.3,1.8,1.9c-0.4,0.3-0.9,0.7-1.3,1
		c-0.4-0.8-0.9-1.5-1.3-2.3C120.8,401.8,121.1,401.6,121.4,401.4z M116.1,404.2c2.7,1,3.9,3.2,3,6.4c-4.4-3.1-4.4-3.1-11.1-0.9
		c-0.1-1.2-0.8-2.9-0.3-3.3C110,404.4,112.9,403.1,116.1,404.2z M109.3,393.8c0.7,0,1.4,1.1,2.6,2.2c-1.4,0.8-2.3,1.7-3,1.5
		c-0.7-0.2-1.2-1.4-1.8-2.1C107.8,394.8,108.6,393.7,109.3,393.8z M82.7,431l-0.3-0.2l0.4-0.1L82.7,431z M101,440.6
		c-3.8-2.9-9.1-3.5-11.4-7.9c-2.6-5-6.7-9.4-6.4-16.2c3.8,1.6,4,5.7,6.3,8c2.4,2.4,6.1,4.1,4,9.3c3-0.8,4.6-1.2,6.3-1.6
		c0.8,0.7,1.7,1.4,2.6,2.2c1.6-2.6-2.7-5.3,1-7.6c5.2,1.7,0.2,7.6,5.2,10.1C105,438.6,103.1,439.6,101,440.6z M107.4,444.4
		c6,0.6,7.3,2,7.8,8.6C110.8,451.2,108.2,448.8,107.4,444.4z M115.9,439.7c-1.9-0.9-2.9-2.5-2.3-5.1c0.4-1.4,0.5-2.9,0.8-4.4
		c0,0,0,0-0.1,0c0,0,0,0,0-0.1c-0.6,0.3-1.2,0.7-1.7,0.7c-1.4-0.2-3.3-0.3-3.8-1.2c-0.6-0.8,0.3-2.6,0.5-4.2c3.4,0.4,4.7,2.1,5,4.7
		c0,0,0.1,0,0.1-0.1c0,0,0,0.1,0,0.1c4.5,0.7,8.3-1.2,11.9-3.8c0.8,4,0.8,4-0.5,7.6C122.4,435.9,119.3,437.7,115.9,439.7z
		 M123.1,442.2l-0.3-0.1l0.2-0.3L123.1,442.2z M122.7,458.5c-0.3,0.1-1.3-0.9-1.2-1c0.3-0.7,0.8-1.4,1.4-1.8
		c0.2-0.1,0.9,0.6,1.9,1.1C123.9,457.6,123.4,458.3,122.7,458.5z M125,468.1c-0.3-0.2-0.5-0.5-0.8-0.7c0.6-0.8,1.2-1.6,1.8-2.3
		c0.4,0.4,0.8,0.8,1.2,1.2C126.5,466.8,125.7,467.4,125,468.1z M127.7,498.7c0.1-1.7,0.2-3.4,0.4-6.1
		C130.8,495.6,129.8,497.2,127.7,498.7z M129.2,544.9c-0.2-0.2-0.4-0.4-0.6-0.7c0.6-0.6,1.2-1.3,1.8-1.9c0.3,0.4,0.6,0.7,0.9,1.1
		C130.5,543.9,129.8,544.4,129.2,544.9z M125.2,533.7c3.1,1.4,5,2.3,7.1,3.3C128.3,538.9,128.3,538.9,125.2,533.7z M156.6,540.8
		c0.1,0,0.3,0.2,0.4,0.3c-0.1,0.2-0.2,0.3-0.3,0.5c-0.2-0.2-0.4-0.4-0.6-0.5C156.3,540.9,156.5,540.8,156.6,540.8z M156.3,548
		c0.3,0.5,0.6,1.1,1,1.6c-0.9,0.5-1.8,1.1-2.7,1.5c-0.1,0.1-0.7-0.9-1-1.4C154.5,549.1,155.4,548.5,156.3,548z M149.7,536.8
		c0.3,0,0.6,0.4,0.9,0.6c-0.2,0.3-0.6,0.9-0.7,0.9c-0.4-0.1-0.8-0.5-1.2-0.8C149.1,537.2,149.4,536.8,149.7,536.8z M150.7,546.3
		c-2.6,3.7-2.6,3.7-7,0.5C147.3,543.9,147.3,543.9,150.7,546.3z M138.7,417.6c0.5,0.1,0.9,0.7,1.6,1.2c-0.6,0.4-1.1,1.1-1.5,1
		c-0.5-0.1-0.8-0.8-1.2-1.2C137.9,418.3,138.3,417.6,138.7,417.6z M143.4,491.2c0-0.1,0-0.1,0-0.2l0.3-0.2l-0.2,0.3
		C143.5,491.2,143.4,491.2,143.4,491.2c-1.1,5.1-1.2,5.1-6,5.6C138.9,494.1,141.3,492.8,143.4,491.2z M139.2,542.1
		c-0.1-0.4-0.2-0.7-0.3-1.1c1-0.2,2-0.5,3-0.7c0.1,0.3,0.2,0.6,0.3,1C141.2,541.5,140.2,541.8,139.2,542.1z M142.7,499.8
		c0.6,3.4,0.9,5.4,1.3,7.8C139.6,504.5,139.6,504.5,142.7,499.8z M146.1,498.4c-0.2,0-0.3-0.7-0.4-1.1c0.6-0.1,1.2-0.4,1.7-0.4
		c0.1,0,0.3,0.7,0.5,1.3C147.3,498.3,146.7,498.5,146.1,498.4z M165.5,245.6c-4.6,1.4-6.2,0.8-8.2-2.7
		C160.8,241.7,162.9,243.7,165.5,245.6z M160.6,344.3C160.6,344.3,160.5,344.3,160.6,344.3C160.5,344.4,160.5,344.4,160.6,344.3
		C160.5,344.6,160.5,344.5,160.6,344.3C160.5,344.4,160.5,344.4,160.6,344.3C160.5,344.3,160.6,344.3,160.6,344.3
		c0,0.1-0.1,0.1-0.1,0.1c-0.1,0.1-0.1,0.1,0,0C160.5,344.4,160.5,344.3,160.6,344.3c0-0.1,0.1-0.2,0.1-0.4c0.1,0,0.1,0,0.2,0
		c0.8-1.4,1.7-2.8,2.8-4.5c1.3,3.6-0.7,4.1-2.8,4.5c0,0-0.1,0.1-0.1,0.1C160.7,344.1,160.6,344.2,160.6,344.3L160.6,344.3
		C160.6,344.3,160.6,344.3,160.6,344.3z M151,338.6c0.3-2.7,0.5-5.4,0.9-8.8C154.7,334.1,154.7,335.1,151,338.6z M155.4,314
		c-0.7,1-1.3,2-2.5,3.8C151.7,314.8,152.7,313.9,155.4,314z M155.9,322.5c-0.3-0.3-0.6-0.7-0.9-1c0.9-0.8,1.8-1.5,2.6-2.3
		c0.2,0.2,0.4,0.4,0.7,0.6C157.5,320.7,156.7,321.6,155.9,322.5z M149.7,294c4.5-2,8.5-2.5,12.9-0.2
		C158.8,296.9,156.4,296.9,149.7,294z M156.1,423.9c-0.8-0.3-1.6-2.2-1.3-3.1c0.2-0.9,1.8-2.2,2.7-2.1c3.3,0.4,6.3,2,10,4.1
		C163.1,425.4,159.5,425.3,156.1,423.9z"/>
	<path class="st1" d="M160.5,344.4C160.4,344.5,160.4,344.5,160.5,344.4L160.5,344.4z"/>
	<path class="st1" d="M160.8,343.9c-0.1,0-0.1,0-0.2,0c0,0.1-0.1,0.3-0.1,0.4c0.1-0.1,0.1-0.2,0.2-0.3
		C160.8,343.9,160.8,343.9,160.8,343.9z"/>
	<path class="st1" d="M160.5,344.4C160.5,344.5,160.5,344.6,160.5,344.4L160.5,344.4z"/>
	<path class="st1" d="M166.8,90.7c-1.1-0.1-2-0.2-3.7-0.4c-0.3,3-0.6,5.5-1,8.6c1.4-1.1,2-1.6,3.4-2.7c-0.2,5.8,2,10.4,0.7,15.5
		c-1.3,4.9-2,9.9-0.4,15c0.4,1.2,0.1,2.6-0.1,3.9c-0.6,3.6-1.3,7.2-2,11.6c-1.4,0.7-3.5,1.8-5.5,2.8c-1.1-0.8-1.8-1.3-2.6-1.7
		c-3.6-2-7.1-4.7-10.9-5.7c-3.2-0.8-5.8-1.5-7.2-5c-3.3,2.4-6.4,2.3-9.7,0.8c-1.1-0.5-2.5-0.5-3.7-0.4c-5.1,0.5-10.3,1-15.5,1.6
		c-5.1,3.1-10.2,5.7-14.8,9c-4,2.9-8.2,4.8-13,6.1c-7.8,2-10.3,5.4-10.9,13.2c-4.6,1.7-5.7,5.6-6.2,10.7c5.7-0.7,10.4,2.9,15.8,1.4
		c0.7-0.2,1.7,0.4,2.5,0.7c7.9,2.6,15.9,5.3,23.8,7.8c1.9,0.6,3.8,2,6.3,0.4c-5.6-2.9-10.8-5.6-15.9-8.4c-5-2.7-10.7-4.3-15.3-9.7
		c12.9,4.6,24.2,9.8,35.5,13.2c3.7-2.9,6.3-5.8,9.6-7.4c4.4-2.2,8.4-5.2,14.2-4.3c3.3,0.5,7.4,0.6,10.1-3.2c0.9-1.3,3.4-1.6,5.1-2.3
		c1.8,2.2,3.3,4.1,4.9,6c1.5,1.8,3.4,3.1,5.8,2.2c0.7-0.2,1.3-0.4,1.9-0.5V87.2c-0.2,0-0.4,0-0.6,0C167.2,88.7,167,89.7,166.8,90.7z
		 M76.5,164.8c-0.1-0.2-0.1-0.5-0.2-0.7c0.2,0,0.4,0,0.6,0.1c0.1,0.1,0.1,0.3,0.1,0.5C76.8,164.7,76.7,164.8,76.5,164.8z
		 M90.7,159.1c-2.1-0.4-4.1-0.8-6.4-1.3c1-3.2,3.1-3.5,5.2-3.1C91.3,155,91.9,156.3,90.7,159.1z M124.7,151.6
		c-2.5-2.4-2.5-2.4-2-6.6C125.4,147.3,127.2,148.8,124.7,151.6z M143.4,156.7c-0.5-0.1-0.9-0.5-1.3-0.7c0.3-0.3,0.6-0.7,0.9-0.7
		c0.3,0,0.7,0.3,1,0.5C143.8,156.1,143.5,156.7,143.4,156.7z"/>
	<path class="st1" d="M79.8,550.1c-3-1.4-3.8-4.1-5.5-6.2c-1.6-2-4-3.5-6.2-4.7c-2.8-1.5-5.9-2.4-9-3.6c-1.2,0.6-2.6,1.3-4.7,2.4
		c-0.2-3.8,1.7-5.6,3.2-7.9c1.4,0.9,2.6,1.7,4,2.6c0.7-1.3,1.2-2.2,1.9-3.6c-3-1.4-2.9-3.9-3.4-6.5c-0.7-3.8-2.3-7.5-4-11.1
		c-1-2.1-3-2.4-4.5-0.8c-0.3,3.3-0.6,6.3-0.9,9.6c-1.3-3.8-2.4-7.1-3.5-10.3c-1.1-3.4-0.9-7.3-3.2-10.5c-2.9,1.9-1.2,3.5-0.6,5.3
		c1.1,3.3,0.8,3.6-3.6,5.5c-2-3.6-4-7.2-6.4-11.3c-2.7,0.3-5.4,0.6-7.8,0.9c-4.7,9.6-9.1,22.1-3.4,29.1c1.3-1.3,2.6-2.5,4.3-4.2
		c-0.3,3.4-0.5,6-0.8,8.9c-0.4,0.2-1.3,0.6-2.3,1.1c0,2.2-0.5,4.3,0.1,6.1c1.3,3.7,2.8,7.4,5,10.6c1.8,2.5,4.9,0.2,7.4,0.2
		c0.8,0,1.6,0.3,2.9,0.6c0-2.2,0-3.9,0-5.7c0,0,0,0,0,0c-2.7-3.4-3.3-6.2-1.8-8c1.4-0.4,2.8-0.7,4.2-1.1c0.5-3.5,0.9-6.6,1.3-9.8
		c1.7,4.8,4.1,9.5,2.6,14.7c0.8,1.2,1.7,2.3,2.4,3.4c-3.4,4.3-3.7,5.5-1.5,6.8c1.2-0.3,2.5-0.6,4.2-1.1c-0.4,1.6-0.7,2.6-0.8,3.1
		c3.6,1.2,7.1,2.4,10.5,3.7c3.6,1.3,7.1,2.5,10.8,0.9c1-1.5,2-2.9,2.9-4.3c2.6,0.7,4.9,1.4,7.4,2C82.1,554.1,81.9,551.1,79.8,550.1z
		 M28.4,522.1c-0.2,0-0.4,0-0.6,0c0.1-0.3,0.1-0.6,0.2-0.9c0.2,0.1,0.4,0.2,0.5,0.3C28.5,521.7,28.4,521.9,28.4,522.1z M33.7,514.7
		c0.2,0.1,0.4,0.2,0.4,0.3c0,0.2-0.1,0.3-0.2,0.5c-0.2,0-0.4,0-0.5,0.1C33.5,515.3,33.6,515,33.7,514.7z M33.3,534
		c0.1-0.4,0.1-0.7,0.2-1.6c0.4,0.8,0.7,1.2,1,1.7C34.1,534.1,33.7,534.1,33.3,534z M43.6,517.5c-0.6-0.5-1.4-1.1-1.4-1.3
		c0.3-0.6,0.9-1.1,1.4-1.7c0.4,0.4,1.1,0.9,1.1,1.4C44.7,516.3,44.1,516.8,43.6,517.5z M55,551.3c0.1-0.2,0.2-0.4,0.3-0.5
		c0.1,0.1,0.3,0.2,0.4,0.2c0,0.2,0,0.4,0,0.6C55.5,551.5,55.3,551.4,55,551.3z"/>
	<path class="st1" d="M26.8,66.3c0.4,2.1,1,4.2,1.6,6.6c3.3,2.3,6.8,4.8,10.9,7.7c-2,7.2,5.9,6.9,9.2,9.6c-1.2,3.5-2.2,6.4-3.5,10.4
		c-0.6,0.4-2.3,1.3-3.9,2.3c0.3,6.5,4.8,8.5,10.2,10.5c0.5-1.8,1.3-3.2,1.2-4.5c-0.2-3.3,1.6-5.4,3.9-7.2c4-3.1,4-3.1,2.6-8.1
		c-0.4-1.5-0.7-3-1.1-4.4c2-2.5,3.8-4.9,5.8-7.4c2.8,1.4,5.4,2.4,5.3,6.2c0,1.4,1,2.7,1.7,4.1c1.2-0.8,2.4-1.6,3.9-2.6
		c-2.4-3.9-4.5-7.4-6.7-11c0.9-2,1.8-4.2,2.9-6.8c2.3,0,4.6,0,6.7,0c1,2,1.7,3.5,2.8,5.6c1.2-2.7,2.1-4.7,3-6.8
		c-2-1.2-3.9-2.2-5.8-3.3c-2.1-2.9-0.6-7.4-4.8-9.8c-0.3,4.2-2.9,6.3-5.9,7.3c-4.5,6.6-3.4,15.6-11,21c-2.9-2.1-6-4-8.8-6.4
		c-2.7-2.3-5-5.1-8.4-8.5c5.2,0.2,9.3,0.2,10.4-5.2c-1.5-2.1-2.9-4.1-4.7-6.6c1.4,0.3,5.4,0.1,6.7-0.5c-2.8-2.6-5.5-5.2-5.8-9.2
		c7,0.4,7,0.4,7.6-3.3c-2-1.2-4.1-2.3-6-3.8c-2.2-1.7-4.6-2.1-7.6-2.2c0.7,1.9,1.2,3.2,2,5.3c-3.8-2-6-6.4-9.3-4.6
		c-2.5,3-4.4,5.1-6,7.3c-0.7,1-1.5,2.4-1.3,3.6C25.1,56.5,26,61.4,26.8,66.3z"/>
	<path class="st1" d="M70.7,92.2c0,0,0-0.1-0.1-0.1c0,0,0,0-0.1,0L70.7,92.2z"/>
	<path class="st1" d="M30.7,316.1c0.3-0.4,1.1-0.4,1.7-0.6c0.6,1,1,1.9,1.6,2.9c1.8-1.1,3.4-2,5-3c2.1,3.2,2.8,3.9,5.1,3.2
		c4.3-1.3,8-3.6,10.3-8.2c-7.6,0-14.6,1.9-21.4-1.6c-4.4,2.6-8.6,5.6-12.3,10.4C25.6,320.9,28.3,318.9,30.7,316.1z"/>
	<path class="st1" d="M62.2,483c1.6-0.6,2.8-1.1,4.1-1.6c-0.8-1.8-1.4-3.2-2.1-4.9c4-2.2,6.3-5.4,6-9.2c2.9-1,5.3-1.7,8.1-2.7
		c-1.3-2-2.1-3.2-3-4.6c-4.3,0.8-8.3,1.6-12.3,2.4c-1.4-5-1.4-5-5.2-4.8C62.3,465.4,62.7,473.8,62.2,483z"/>
	<path class="st1" d="M30.9,442c0,0-0.1,0-0.1,0L30.9,442C30.9,442,30.9,442,30.9,442z"/>
	<path class="st1" d="M36.2,440.8C36.2,440.8,36.2,440.8,36.2,440.8l-0.3-0.3L36.2,440.8C36.2,440.7,36.2,440.7,36.2,440.8
		c2.7-0.4,4.7-2.6,8-2.1c2.8,0.4,5.9-1,8.8-1.6c2.5-0.5,3.7-2.2,4.1-4.5c0.4-2.1,0-3.9-2.6-4.4c-1.5,2.3-2.9,4.4-4.3,6.5
		c-4,0.5-7.8,1-11.5,1.5c-3.7,0.5-6.7,1.9-7.7,5.9c1.3,0.5,2.6,1.1,4.1,1.7C35.5,442.6,35.9,441.7,36.2,440.8z"/>
	<path class="st1" d="M35.9,440.4l0.3,0.4c0,0,0,0,0.1,0c0,0,0-0.1,0-0.1L35.9,440.4z"/>
	<path class="st1" d="M30.8,442c0,0,0,0.1,0,0.1c0,0,0.1,0,0.1,0L30.8,442z"/>
	<path class="st1" d="M20.5,453.7c1.4-0.9,2.8-1.9,4.2-2.8c0.6,1.1,1.1,2,1.5,2.7c1.9-2.2,3.7-4.3,5.7-6.7c-0.3-1.5-0.7-3.1-1.1-4.7
		c-3.6,1.8-5.7,5.5-9.8,6.8C19.8,449.4,18.4,451.4,20.5,453.7z"/>
	<path class="st1" d="M42.6,463.8c-3.1,3.6-2.5,7.3-0.5,11.6c2.1-4.2,4-7.8,6-11.7C45.6,461.4,44.1,462.1,42.6,463.8z"/>
	<path class="st1" d="M81.5,88.6c3.6,1.3,6.8,2.4,10,3.5c1-3.2,1-3.2-5.8-8.4c-1,0.2-2.1,0.4-3.1,0.7C82.3,85.7,81.9,87,81.5,88.6z"
		/>
	<path class="st1" d="M82.6,84.3C82.6,84.3,82.6,84.3,82.6,84.3c0.1,0,0.1-0.1,0.1-0.1L82.6,84.3z"/>
	<path class="st1" d="M102.7,452.8c-1.4,2-2.3,3.5-3.3,4.9c-1.6-0.6-2.8-1.1-4.4-1.7c0,1.9,0,3.3,0,4.7c3.2,0.8,6.2,1.5,9.3,2.2
		C103.7,459.3,103.3,456.4,102.7,452.8z"/>
	<path class="st1" d="M73.5,533.9c-1.9-4.6-2.8-5.7-8.5-10.2C65.6,529.8,68.9,533.8,73.5,533.9z"/>
	<path class="st1" d="M45.4,294c-1-0.9-1.9-2.3-3-2.4c-2.1-0.3-4.1,0.5-5.5,3.6c3,0.3,5.4,0.5,7.7,0.8
		C44.8,295.3,45.1,294.6,45.4,294z"/>
	<path class="st1" d="M61.7,440.3c-0.4,0-0.7,0-1.1,0c-0.6,2.3-1.2,4.7-2,7.9c2.4-0.1,3.9-0.2,6.4-0.3
		C63.6,444.5,62.7,442.4,61.7,440.3z"/>
	<path class="st1" d="M60.9,508.4c2-5.1,1-6.3-4.3-5.6C56.3,505.7,58.2,507,60.9,508.4z"/>
	<path class="st1" d="M27.1,462.5c4-1.8,7.2-3.3,9-8C31.7,456.1,28,457.1,27.1,462.5z"/>
	<path class="st1" d="M66,96.1c1.6,0.3,3.3,0.2,4.6,0.9c1.4,0.8,1.9,3.4,4.5,2.3c-1.6-2.5-3.1-4.8-4.5-7.1
		C68.9,93.3,66.5,93.7,66,96.1z"/>
	<path class="st1" d="M70.6,92.3C70.6,92.3,70.7,92.3,70.6,92.3l-0.1-0.1C70.6,92.2,70.6,92.2,70.6,92.3z"/>
	<path class="st1" d="M9.4,476.6c-3.1,0.7-6.4,0.8-6.3,5.1C7.5,481.6,7.5,481.5,9.4,476.6z"/>
	<path class="st1" d="M3.1,481.7C3.1,481.7,3,481.7,3.1,481.7l0,0.1C3.1,481.8,3.1,481.8,3.1,481.7z"/>
	<path class="st1" d="M66.7,103.5c-2.5-0.3-3.3,1.3-3.1,3.8c2.2,0.8,4.2,1.2,5-1.8C68.6,105,67.4,103.5,66.7,103.5z"/>
	<path class="st1" d="M55,361.2c-1.8-1.6-2.9-2.6-4.4-4c-1,1.9-1.7,3.4-2.4,4.8c0.4,0.4,0.7,0.8,1.1,1.2
		C50.9,362.6,52.6,362,55,361.2z"/>
	<path class="st1" d="M50,467.7c-2.3,2.9-2.1,5.4-1.8,8.1C51.7,474,50.8,471.3,50,467.7z"/>
	<path class="st1" d="M19.3,435.8c-2.7,1-3.4,2.8-3,5.4C18.3,440.2,20.7,439.3,19.3,435.8z"/>
	<path class="st1" d="M56.6,439c-2.7,0.3-4.8,0.8-4.1,4.9C55.9,441.7,55.9,441.7,56.6,439z"/>
	<path class="st1" d="M79,450.1c-3.1,0.6-5.4,0.9-5.3,5.1C76.8,454,78.2,452.8,79,450.1z"/>
	<path class="st1" d="M97.7,470.8c-2-2.6-3.2-4.2-4.3-5.7C92.3,468.4,93.3,470,97.7,470.8z"/>
	<path class="st1" d="M100.4,496.6c1-1.9,0.7-3.2-2.9-4.3c0.5,2.2,0.8,3.5,1.2,4.8C99.2,496.9,99.8,496.8,100.4,496.6z"/>
	<path class="st1" d="M96.9,486.6c-2.3-0.1-3.8-0.2-6.5-0.4C94.2,489.3,94.2,489.3,96.9,486.6z"/>
	<path class="st1" d="M85.2,452.4c-0.7-1.5-1.4-3-2.1-4.6c-0.4,0.2-0.9,0.3-1.3,0.5c0.5,1.6,1.1,3.2,1.6,4.8
		C84,452.9,84.6,452.7,85.2,452.4z"/>
	<path class="st1" d="M15.2,461.3c3.2-0.3,4.4-1.8,5.7-4.5C17.7,457.1,16.7,458.9,15.2,461.3z"/>
	<path class="st1" d="M72.4,513.3c2.3-0.2,3.7-0.3,5.2-0.4C75.8,511,74.1,510.3,72.4,513.3z"/>
	<path class="st1" d="M38.9,546.6c0,0-0.1,0-0.1,0C38.8,546.7,38.8,546.7,38.9,546.6C38.9,546.7,38.9,546.7,38.9,546.6z"/>
	<path class="st1" d="M40.1,542.2c-0.6,2.3-0.9,3.4-1.2,4.5c1.1,0.2,2.2,0.4,4.3,0.9C42,545.4,41.3,544.3,40.1,542.2z"/>
	<path class="st1" d="M38.9,546.7c0,0-0.1-0.1-0.1-0.1c0,0,0,0,0,0L38.9,546.7z"/>
	<path class="st1" d="M3,481.9c-3.4,0-3.4,0.1-2.1,3.9C1.7,484.2,2.3,483,3,481.9z"/>
	<path class="st1" d="M3,481.7c0,0,0,0.1-0.1,0.1c0.1,0,0.1,0,0.2,0L3,481.7z"/>
	<path class="st1" d="M51.3,482.7c-0.8,2.8,0,4.4,2,5.6C53.1,486.4,53.7,484.3,51.3,482.7z"/>
	<path class="st1" d="M53.3,488.4L53.3,488.4c0.1-0.1,0-0.1,0-0.2C53.3,488.3,53.3,488.4,53.3,488.4z"/>
	<path class="st1" d="M93.1,65.7c0,0.1,0,0.1-0.1,0.2c0.1,0,0.1-0.1,0.2-0.1L93.1,65.7z"/>
	<path class="st1" d="M93,65.9c-2.5,1.7-2.5,1.8-1.5,5.7C92.3,68.8,92.7,67.3,93,65.9z"/>
	<path class="st1" d="M6.6,541.9c0.6,0.5,1.1,0.9,1.7,1.4c0.4-0.5,0.7-0.9,1.2-1.6c-0.7-0.4-1.2-1-1.6-1
		C7.5,540.9,7.1,541.5,6.6,541.9z"/>
	<path class="st1" d="M61.4,352c-0.2,1-0.4,2.1-0.8,3.7C63.3,353.6,63.4,353.6,61.4,352z"/>
	<path class="st1" d="M61.4,352c0-0.1,0-0.1,0-0.2L61.4,352C61.4,352,61.4,352,61.4,352z"/>
	<path class="st1" d="M105.3,503.3c-0.9-1.1-1.8-2.2-2.7-3.4c-0.4,0.3-0.7,0.6-1.1,1c1.1,1,2.2,2,3.3,3
		C105,503.6,105.2,503.4,105.3,503.3z"/>
	<path class="st1" d="M22,432.2c0.1,0.5,0.7,0.8,1.2,1.2c0.4-0.6,0.9-1.2,1.2-1.8c0.1-0.1-0.9-0.6-1.5-1.1
		C22.5,431.2,22,431.8,22,432.2z"/>
	<path class="st1" d="M78.6,404.9c-0.3,0-0.6,0-0.9,0c0,0.9,0,1.9,0,2.8c0.3,0,0.6,0,0.9,0C78.6,406.7,78.6,405.8,78.6,404.9z"/>
	<path class="st1" d="M102.4,469.2c-0.6,0-1.2,0.2-1.7,0.4c0.1,0.4,0.2,1,0.4,1.1c0.6,0.1,1.1-0.1,1.8-0.1
		C102.7,469.9,102.5,469.2,102.4,469.2z"/>
	<path class="st1" d="M14.5,472.8c0.4,0.2,0.9,0.7,1,0.6c0.5-0.3,0.8-0.8,1.2-1.2c-0.3-0.2-0.7-0.5-1.3-0.8
		C15.1,471.9,14.8,472.4,14.5,472.8z"/>
	<path class="st1" d="M79.2,507.3c-0.3,0-0.7,0.4-1,0.6c0.3,0.4,0.6,1.2,0.9,1.2c0.4,0.1,0.9-0.4,1.8-0.9
		C80.1,507.8,79.6,507.4,79.2,507.3z"/>
	<path class="st1" d="M78.4,107.4c0.5,0.4,1,0.9,1.5,1.3c0.6-0.6,1.3-1.2,1.9-1.9c-0.6-0.6-1.3-1.2-1.9-1.8
		C79.4,105.8,78.9,106.6,78.4,107.4z"/>
	<path class="st1" d="M51.5,318.7c0.4,0.3,0.7,0.7,1.1,1c0.5-0.8,1-1.6,1.5-2.4c-0.3-0.2-0.6-0.4-0.8-0.6
		C52.7,317.4,52.1,318,51.5,318.7z"/>
	<path class="st1" d="M116.8,52.8c0.2,0.1,0.5-0.4,0.8-0.6c-0.2-0.4-0.3-0.7-0.5-1c-0.4,0.3-0.7,0.6-1.1,0.8
		C116.3,52.3,116.5,52.7,116.8,52.8z"/>
	<path class="st1" d="M80.7,53.8c-0.1-0.5-0.3-1-0.5-1.4c-0.3,0.3-0.6,0.5-0.9,0.8c0.1,0.4,0.2,0.7,0.4,1.1
		C80,54.1,80.7,53.9,80.7,53.8z"/>
	<path class="st1" d="M29.5,293.5c0.3,0.3,0.7,0.7,1.1,0.9c0.1,0,0.5-0.5,0.7-0.8c-0.3-0.2-0.5-0.7-0.8-0.7
		C30.2,293,29.9,293.3,29.5,293.5z"/>
	<path class="st1" d="M95.2,63.3c-0.6,0.7-1.2,1.5-1.8,2.2c0.8-0.4,1.7-0.9,2.5-1.3C95.7,63.9,95.5,63.6,95.2,63.3z"/>
	<path class="st1" d="M93.4,65.5c-0.1,0.1-0.2,0.1-0.3,0.2l0.1,0.1C93.3,65.7,93.3,65.6,93.4,65.5z"/>
	<path class="st1" d="M60.1,306.7c-0.2-0.3-0.5-0.5-0.7-0.8c-0.4,0.2-0.9,0.2-1,0.5c-0.1,0.2,0.2,0.7,0.3,1
		C59.1,307.2,59.6,307,60.1,306.7z"/>
	<path class="st1" d="M19.1,299.9c-0.3-0.2-0.7-0.6-1-0.6c-0.3,0-0.7,0.4-1,0.7c0.4,0.3,0.8,0.7,1.2,0.8
		C18.5,300.9,18.9,300.3,19.1,299.9z"/>
	<path class="st1" d="M75.3,474.2c-0.4,0.2-0.9,0.3-1,0.6c-0.1,0.2,0.2,0.7,0.3,1.1c0.5-0.3,1-0.5,1.5-0.8
		C75.8,474.7,75.5,474.5,75.3,474.2z"/>
	<path class="st1" d="M83.2,97c-0.4,0.2-0.7,0.6-1,1c0.3,0.2,0.7,0.5,1,0.5c0.2,0,0.5-0.5,0.8-0.8C83.7,97.4,83.3,96.9,83.2,97z"/>
	<path class="st1" d="M66.6,486.3c-0.5,0.1-0.9,0.4-1.4,0.6c0.3,0.3,0.6,0.5,0.9,0.8c0.3-0.1,0.7-0.3,1.1-0.4
		C66.9,486.9,66.7,486.3,66.6,486.3z"/>
	<path class="st1" d="M79.8,501.2c0.1,0,0.4-0.6,0.7-0.9c-0.3-0.2-0.7-0.6-1-0.6c-0.3,0-0.7,0.4-1,0.7
		C78.9,500.7,79.3,501.1,79.8,501.2z"/>
	<path class="st1" d="M38.6,449.1c0.1-0.6,0-1.3,0-2c-0.5,0.6-1,1.2-1.9,2.3C37.9,449.2,38.6,449.2,38.6,449.1z"/>
	<path class="st1" d="M114.4,510.9c-0.1-0.1-0.2-0.2-0.3-0.2C114.1,510.8,114.2,510.9,114.4,510.9L114.4,510.9z"/>
	<path class="st1" d="M113,509c-0.2,0.1-0.3,0.3-0.5,0.4c0.5,0.4,1,0.8,1.5,1.2C113.7,510.1,113.3,509.6,113,509z"/>
	<path class="st1" d="M35.1,466.1c0.3-0.2,0.5-0.5,0.8-0.7c-0.1-0.4-0.2-0.7-0.3-1.1c-0.3,0.1-0.7,0.2-1,0.3
		C34.7,465.1,34.9,465.6,35.1,466.1z"/>
	<path class="st1" d="M45.9,496.7c0-0.2,0.1-0.4,0.1-0.6c-0.3,0-0.6-0.1-1-0.1c0,0-0.1,0.3-0.1,0.5
		C45.2,496.6,45.6,496.7,45.9,496.7z"/>
	<path class="st1" d="M33,337.1c0,0.2,0,0.5,0.1,0.5c0.3,0,0.6,0,1,0c0-0.2,0-0.5-0.1-0.5C33.7,337,33.3,337.1,33,337.1z"/>
	<path class="st1" d="M64.8,440.6c0.1-0.2,0.2-0.4,0.3-0.5c-0.3-0.1-0.5-0.2-0.8-0.3c0,0.2-0.1,0.4,0,0.6
		C64.4,440.5,64.6,440.5,64.8,440.6z"/>
	<path class="st1" d="M64.6,369.4c0.1-0.2-0.1-0.4-0.1-0.5c-0.2,0-0.4,0.1-0.6,0.1c0.1,0.3,0.2,0.5,0.2,0.8
		C64.4,369.7,64.6,369.6,64.6,369.4z"/>
	<path class="st1" d="M82.2,84.2c0.1,0,0.2,0.1,0.3,0.1l0.1-0.1C82.5,84.2,82.4,84.2,82.2,84.2z"/>
	<path class="st1" d="M80.1,84c0.7,0.1,1.4,0.1,2.1,0.2c-0.6-0.3-1.3-0.6-1.9-0.9C80.3,83.5,80.2,83.7,80.1,84z"/>
	<path class="st1" d="M82,466.1c0.1,0.1,0.2,0.3,0.3,0.4c0.1,0,0.3-0.1,0.5-0.1c0-0.2-0.1-0.3-0.1-0.5C82.4,466,82.2,466,82,466.1z"
		/>
	<polygon class="st1" points="23.8,484.3 23.4,484.2 23.5,484.6 	"/>
	<polygon class="st1" points="109.2,506.1 108.8,506.3 109.2,506.5 	"/>
	<path class="st1" d="M115.5,511.3c-0.4-0.1-0.8-0.3-1.2-0.4l-0.1,0.1C114.7,511.1,115.1,511.2,115.5,511.3z"/>
	<polygon class="st1" points="79.4,528.4 79.3,527.9 79,528.3 	"/>
	<polygon class="st1" points="107.8,554.2 107.8,553.8 107.5,553.9 	"/>
	<polygon class="st1" points="53.7,488.7 53.4,488.3 53.3,488.4 	"/>
	<polygon class="st1" points="21.9,481.5 21.5,481.7 21.6,481.8 	"/>
	<path class="st1" d="M8.2,505.1c-3.8-2.9-0.5-4.5,0.8-6.9c-3.5-0.6-6.3-1-9.1-1.4C1.9,500.3,0.9,505.7,8.2,505.1z"/>
	<path class="st1" d="M9.3,490.5c-0.7,0.3-1.2,0.9-2,1.6c0.9,0.5,1.6,1.2,1.8,1.1c0.6-0.4,1.1-1,1.4-1.7
		C10.5,491.4,9.5,490.4,9.3,490.5z"/>
	<path class="st1" d="M7.1,525.5c0,0,0-0.1,0.1-0.1C7.1,525.4,7.1,525.4,7.1,525.5L7.1,525.5z"/>
	<path class="st1" d="M7.2,525.4c2.2-0.6,3.4-1.8,2.3-4.6C8.7,522.3,7.9,523.9,7.2,525.4z"/>
	<path class="st1" d="M7.6,515.8c0-0.5-0.6-0.9-1.2-1.7c-0.5,0.7-1.1,1.2-1,1.6c0.1,0.5,0.7,0.9,1.1,1.3
		C6.9,516.6,7.6,516.2,7.6,515.8z"/>
	<polygon class="st1" points="6.7,525.8 7.1,525.5 7,525.4 	"/>
</g>
</svg>
